<svg xmlns="http://www.w3.org/2000/svg" viewBox="133.8 192.35 600 600">
  <path fill="#0a2956" d="M649.4,383.3v385.8H218.2v-385.8c0-7.9.6-15.7,1.6-23.4,1.6-11.3,4.3-22.3,8-32.8,15.2-42.7,47.2-77.4,88-96.2,8.8-4.1,18-7.4,27.6-9.9,13.5-3.5,27.8-5.4,42.4-5.4h95.7c8.2,0,16.3.6,24.3,1.8,47.6,6.9,88.7,33.9,114.6,71.9,18.2,26.8,28.9,59.2,28.9,94"/>
  <path fill="#ff4812" d="M649.4,383.3v385.8H218.2v-28.9h213.5c.6-8.2,1.6-16.3,3.1-24.2l-187.8-50.3-28.9-7.7v-29.9l28.9,7.7,195.3,52.3c2.7-7.7,5.8-15.3,9.3-22.6l-204.6-118.1-28.9-16.7v-33.3l28.9,16.7,219,126.5c4.6-6.8,9.6-13.2,15-19.4L219.8,359.9c1.6-11.3,4.3-22.3,8-32.8l273.6,273.6c6.2-5.3,12.6-10.4,19.4-15l-190.4-329.7-14.5-25.1c8.8-4.1,18-7.4,27.6-9.9l15.1,26.1,187.2,324.2c7.3-3.5,14.9-6.7,22.6-9.3l-85.1-317.5-7.7-28.9h6.1c8.2,0,16.3.6,24.3,1.8l8.3,31,82,306.2c7.9-1.5,16-2.6,24.2-3.1v-262.1c18.2,26.8,28.9,59.2,28.9,94"/>
  <path fill="#ff4812" d="M620.5,289.3c-25.9-38.1-67-65.1-114.6-71.9-7.9-1.2-16-1.8-24.3-1.8h-95.7c-14.6,0-28.9,1.9-42.4,5.4-9.5,2.5-18.8,5.8-27.6,9.9-40.8,18.8-72.8,53.5-88,96.2-3.7,10.5-6.5,21.5-8,32.8-1.1,7.6-1.6,15.5-1.6,23.4v385.8h431.2v-385.8c0-34.8-10.7-67.2-28.9-94M620.5,740.2H247.1v-356.9c0-11.4,1.4-22.4,4-33,10.3-42.3,40.2-77.1,79.4-94.3,8.9-3.9,18.4-7,28.2-8.9,8.8-1.8,18-2.7,27.3-2.7h97.4c10.6.1,21,1.5,30.9,3.9,60.9,14.7,106.3,69.6,106.3,135v356.9Z"/>
</svg>
