<svg preserveAspectRatio="xMidYMid meet" overflow="visible" style="display: block;" viewBox="0 0 16 24" fill="none" xmlns="http://www.w3.org/2000/svg">
<g id="Arrow---Up">
<path id="Vector" d="M8.48094 13.5513L8.00881 13.5533C6.04663 13.5533 4.25776 13.4384 3.09161 13.2653L2.36644 13.1137C1.98238 13.0293 1.54507 12.9184 1.32183 12.8028C0.505232 12.3795 0 11.5519 0 10.6661V10.589C0.0190931 10.0115 0.525794 8.79844 0.543418 8.79844C1.36244 6.84646 3.83429 3.08061 5.59652 1.34133L6.12558 0.835905C6.26897 0.703552 6.43868 0.554854 6.57096 0.46254C6.97925 0.15418 7.48449 0 7.98972 0C8.5537 0 9.07802 0.173089 9.50688 0.500358L10.0673 1.01964L10.1869 1.13599C11.8979 2.71415 14.6958 6.83483 15.552 8.99044L15.6768 9.31589C15.8171 9.70752 15.9846 10.2562 16 10.589C16 11.0122 15.9016 11.4166 15.7077 11.802C15.436 12.2835 15.0072 12.6675 14.5019 12.8798C14.1524 13.0151 13.1023 13.2275 13.0832 13.2275C12.0243 13.4222 10.3536 13.535 8.48094 13.5513ZM7.99941 24C6.88173 24 5.97555 23.1026 5.97555 21.9957L6.41175 17.0634C6.41175 16.195 7.1226 15.491 7.99941 15.491C8.87769 15.491 9.58708 16.195 9.58708 17.0634L10.0233 21.9957C10.0233 23.1026 9.11709 24 7.99941 24Z" fill="var(--fill-0, black)"/>
</g>
</svg>
