<svg xmlns="http://www.w3.org/2000/svg" viewBox="0 0 2339 1653" width="2339" height="1653" preserveAspectRatio="none"><path fill="#000" d="M1391 30h13v1h-13zM1391 31h1v16h-1zM1403 31h1v16h-1zM1391 47h13v1h-13zM1391 48h2v1h-2zM1403 48h1v1h-1zM1387 49h6v1h-6zM1396 49h3v1h-3zM1403 49h5v1h-5zM1387 50h22v1h-22zM1387 51h4v1h-4zM1392 51h1v1h-1zM1397 51h2v1h-2zM1403 51h2v1h-2zM1406 51h3v1h-3zM1387 52h22v2h-22zM1387 54h6v1h-6zM1395 54h5v1h-5zM1402 54h6v1h-6zM1388 55h5v1h-5zM1394 55h8v1h-8zM1403 55h2v1h-2zM1406 55h2v1h-2zM1390 56h16v1h-16zM1390 57h5v1h-5zM1396 57h25v1h-25zM1390 58h16v1h-16zM1390 59h5v1h-5zM1396 59h2v1h-2zM1399 59h1v1h-1zM1401 59h5v1h-5zM1420 58h1v2h-1zM1390 60h31v1h-31zM1390 61h16v1h-16zM1391 62h2v1h-2zM1394 62h8v1h-8zM1403 62h1v1h-1zM1387 63h6v1h-6zM1395 63h4v1h-4zM1403 63h5v1h-5zM1387 64h22v1h-22zM1387 65h4v1h-4zM1392 65h1v1h-1zM1397 65h2v1h-2zM1403 65h2v1h-2zM1406 65h3v1h-3zM1387 66h22v2h-22zM1387 68h6v1h-6zM1396 68h3v1h-3zM1402 68h6v1h-6zM1388 69h5v1h-5zM1397 69h2v1h-2zM1403 69h2v1h-2zM1406 69h2v1h-2zM1390 70h15v1h-15zM1391 71h2v3h-2zM1403 71h2v3h-2zM1390 74h1v2h-1zM1389 76h2v1h-2zM1389 77h1v2h-1zM1389 79h2v1h-2zM1390 80h1v1h-1zM1392 74h1v7h-1zM1403 74h1v7h-1zM1405 74h1v7h-1zM1390 81h3v1h-3zM1403 81h3v1h-3zM1391 82h2v2h-2zM1403 82h2v2h-2zM1390 84h15v2h-15zM1391 86h2v1h-2zM1403 86h1v1h-1zM1387 87h6v1h-6zM1396 87h4v1h-4zM1402 87h6v1h-6zM1387 88h22v2h-22zM1387 90h4v1h-4zM1392 90h1v1h-1zM1397 90h2v1h-2zM1403 90h2v1h-2zM1406 90h3v1h-3zM1387 91h22v1h-22zM1387 92h6v1h-6zM1396 92h3v1h-3zM1402 92h6v1h-6zM1388 93h5v1h-5zM1397 93h2v1h-2zM1403 93h2v1h-2zM1406 93h2v1h-2zM1391 94h13v1h-13zM1392 95h1v2h-1zM1402 95h1v2h-1zM1393 97h1v2h-1zM1401 97h1v2h-1zM1374 100h8v1h-8zM1394 99h1v2h-1zM1400 99h1v2h-1zM1373 101h3v1h-3zM1381 101h3v1h-3zM1395 101h1v1h-1zM1399 101h1v1h-1zM1373 102h2v1h-2zM1389 102h17v1h-17zM1372 103h1v1h-1zM1374 103h1v1h-1zM1383 102h1v2h-1zM1391 103h1v1h-1zM1393 103h1v1h-1zM1402 103h1v1h-1zM1371 104h1v1h-1zM1391 104h12v1h-12zM1373 104h1v2h-1zM1389 103h1v3h-1zM1393 105h1v1h-1zM1372 106h2v1h-2zM1383 104h3v3h-3zM1389 106h5v1h-5zM1402 105h1v2h-1zM1372 107h1v1h-1zM1377 107h23v1h-23zM1401 107h2v1h-2zM1372 108h2v1h-2zM1380 108h1v1h-1zM1400 108h4v1h-4zM1402 109h2v1h-2zM1405 103h1v7h-1zM1370 105h1v6h-1zM1373 109h1v2h-1zM1377 108h1v3h-1zM1379 109h1v2h-1zM1373 111h7v1h-7zM1373 112h1v1h-1zM1402 110h1v4h-1zM1404 110h2v4h-2zM1397 108h1v7h-1zM1402 114h2v1h-2zM1371 111h1v5h-1zM1377 112h1v4h-1zM1379 112h1v4h-1zM1389 108h1v8h-1zM1393 108h1v8h-1zM1397 115h6v1h-6zM1377 116h21v1h-21zM1374 113h1v5h-1zM1389 117h5v1h-5zM1393 118h1v1h-1zM1402 116h1v3h-1zM1379 117h1v3h-1zM1389 118h1v2h-1zM1391 119h12v1h-12zM1405 114h1v6h-1zM1372 116h1v5h-1zM1389 120h17v1h-17zM1372 121h2v1h-2zM1375 118h1v4h-1zM1379 120h3v2h-3zM1391 121h12v1h-12zM1373 122h9v1h-9zM1395 122h1v1h-1zM1375 123h5v1h-5zM1400 122h1v2h-1zM1394 123h1v2h-1zM1393 125h1v2h-1zM1401 124h1v3h-1zM1392 127h1v2h-1zM1402 127h1v2h-1zM1391 129h13v1h-13zM1388 130h5v1h-5zM1397 130h2v1h-2zM1403 130h2v1h-2zM1406 130h2v1h-2zM1387 131h6v1h-6zM1396 131h3v1h-3zM1402 131h6v1h-6zM1387 132h22v1h-22zM1387 133h4v1h-4zM1392 133h1v1h-1zM1397 133h2v1h-2zM1403 133h2v1h-2zM1406 133h3v1h-3zM1387 134h22v2h-22zM1387 136h6v1h-6zM1396 136h3v1h-3zM1403 136h5v1h-5zM1391 137h2v1h-2zM1403 137h1v1h-1zM1390 138h15v1h-15zM1391 139h2v3h-2zM1403 139h2v3h-2zM1390 142h1v2h-1zM1389 144h2v1h-2zM1389 145h1v2h-1zM1389 147h2v1h-2zM1390 148h1v1h-1zM1392 142h1v7h-1zM1403 142h1v7h-1zM1405 142h1v7h-1zM1390 149h3v1h-3zM1403 149h3v1h-3zM1391 150h2v2h-2zM1403 150h2v2h-2zM1390 152h15v2h-15zM1396 154h3v1h-3zM1387 154h6v2h-6zM1396 155h4v1h-4zM1402 154h6v2h-6zM1387 156h22v2h-22zM1387 158h4v1h-4zM1392 158h1v1h-1zM1397 158h2v1h-2zM1403 158h2v1h-2zM1406 158h3v1h-3zM1387 159h22v1h-22zM1391 160h2v1h-2zM1395 160h2v1h-2zM1398 160h3v1h-3zM1403 160h2v1h-2zM1391 161h14v1h-14zM1390 162h30v1h-30zM549 163h13v1h-13zM1390 163h5v1h-5zM1396 163h2v1h-2zM1399 163h1v1h-1zM1401 163h5v1h-5zM1419 163h2v1h-2zM1420 164h1v1h-1zM1390 164h16v2h-16zM1419 165h2v1h-2zM1390 166h5v1h-5zM1396 166h24v1h-24zM1390 167h16v1h-16zM1394 168h7v1h-7zM1387 168h6v2h-6zM1396 169h4v1h-4zM1402 168h6v2h-6zM1387 170h22v2h-22zM1387 172h4v1h-4zM1392 172h1v1h-1zM1397 172h2v1h-2zM1403 172h2v1h-2zM1406 172h3v1h-3zM1387 173h22v1h-22zM1403 174h2v1h-2zM1391 174h2v2h-2zM1403 175h1v1h-1zM1391 176h13v3h-13zM549 164h1v16h-1zM561 164h1v16h-1zM1391 179h1v1h-1zM1395 179h6v1h-6zM1403 179h1v1h-1zM549 180h13v1h-13zM1390 180h16v1h-16zM548 181h14v1h-14zM1390 181h14v1h-14zM548 182h2v1h-2zM560 182h2v1h-2zM1390 182h5v1h-5zM1396 182h2v1h-2zM1399 182h5v1h-5zM1405 181h1v2h-1zM544 183h22v1h-22zM544 184h3v1h-3zM548 184h2v1h-2zM554 184h2v1h-2zM560 184h1v1h-1zM562 184h4v1h-4zM1390 183h16v2h-16zM544 185h22v1h-22zM1399 185h7v1h-7zM544 186h3v1h-3zM548 186h2v1h-2zM554 186h2v1h-2zM560 186h1v1h-1zM562 186h4v1h-4zM544 187h22v1h-22zM1390 185h6v3h-6zM1400 186h6v2h-6zM545 188h6v1h-6zM552 188h7v1h-7zM560 188h6v1h-6zM1390 188h7v1h-7zM1399 188h7v1h-7zM545 189h2v1h-2zM548 189h17v1h-17zM1389 189h17v1h-17zM547 190h31v1h-31zM1389 190h15v1h-15zM547 191h16v1h-16zM1390 191h14v1h-14zM1405 190h1v2h-1zM547 192h5v1h-5zM553 192h1v1h-1zM555 192h2v1h-2zM558 192h5v1h-5zM1390 192h16v1h-16zM547 193h16v1h-16zM577 191h1v3h-1zM1394 193h8v1h-8zM547 194h31v1h-31zM1396 194h4v1h-4zM548 195h14v1h-14zM1391 193h1v3h-1zM1403 193h1v3h-1zM548 196h2v1h-2zM552 196h5v1h-5zM560 196h2v1h-2zM544 197h22v1h-22zM544 198h3v1h-3zM548 198h2v1h-2zM554 198h2v1h-2zM560 198h1v1h-1zM562 198h4v1h-4zM1391 196h13v3h-13zM544 199h22v1h-22zM1388 199h17v1h-17zM1406 199h2v1h-2zM544 200h3v1h-3zM548 200h2v1h-2zM554 200h2v1h-2zM560 200h1v1h-1zM562 200h4v1h-4zM1387 200h6v1h-6zM1396 200h3v1h-3zM1402 200h6v1h-6zM544 201h22v1h-22zM1387 201h22v1h-22zM545 202h6v1h-6zM553 202h4v1h-4zM560 202h6v1h-6zM1387 202h4v1h-4zM1392 202h1v1h-1zM1397 202h2v1h-2zM1403 202h2v1h-2zM1406 202h3v1h-3zM545 203h2v1h-2zM548 203h17v1h-17zM1387 203h22v1h-22zM548 204h15v1h-15zM1387 204h4v1h-4zM1392 204h1v1h-1zM1397 204h2v1h-2zM1403 204h2v1h-2zM1406 204h3v1h-3zM1387 205h22v1h-22zM560 205h2v2h-2zM1391 206h2v1h-2zM1403 206h2v1h-2zM548 205h2v3h-2zM560 207h3v1h-3zM1391 207h14v1h-14zM547 208h3v1h-3zM562 208h1v1h-1zM1391 208h13v1h-13zM562 209h2v1h-2zM563 210h1v2h-1zM547 209h1v4h-1zM549 209h1v4h-1zM562 212h2v1h-2zM547 213h3v1h-3zM560 208h1v7h-1zM562 213h1v2h-1zM548 214h2v4h-2zM560 215h2v3h-2zM548 218h15v1h-15zM548 219h2v1h-2zM560 219h2v1h-2zM545 220h5v1h-5zM554 220h3v1h-3zM560 220h6v1h-6zM544 221h22v1h-22zM544 222h3v1h-3zM548 222h2v1h-2zM554 222h2v1h-2zM560 222h1v1h-1zM562 222h4v1h-4zM544 223h22v2h-22zM544 225h7v1h-7zM545 226h6v1h-6zM553 225h4v2h-4zM560 225h6v2h-6zM549 227h13v1h-13zM549 228h1v2h-1zM560 228h1v2h-1zM550 230h1v2h-1zM559 230h1v2h-1zM532 233h7v1h-7zM551 232h1v2h-1zM558 232h1v2h-1zM531 234h2v1h-2zM538 234h3v1h-3zM557 234h1v1h-1zM530 235h1v1h-1zM532 235h1v1h-1zM540 235h2v1h-2zM552 234h1v2h-1zM556 235h1v1h-1zM530 236h2v1h-2zM547 236h17v1h-17zM529 237h1v1h-1zM531 237h1v1h-1zM541 236h1v2h-1zM549 237h11v1h-11zM530 238h2v1h-2zM547 237h1v2h-1zM528 238h1v2h-1zM541 238h3v2h-3zM547 239h2v1h-2zM550 238h1v2h-1zM527 240h2v1h-2zM534 240h22v1h-22zM559 238h1v3h-1zM538 241h4v1h-4zM554 241h7v1h-7zM537 242h1v1h-1zM530 239h1v5h-1zM530 244h2v1h-2zM534 241h1v4h-1zM536 243h1v2h-1zM531 245h6v1h-6zM528 241h1v6h-1zM528 247h2v1h-2zM559 242h1v6h-1zM561 242h1v6h-1zM1391 209h1v39h-1zM1403 209h1v39h-1zM531 246h1v3h-1zM550 241h1v8h-1zM555 242h1v7h-1zM557 248h3v1h-3zM1391 248h13v1h-13zM534 246h1v4h-1zM536 246h1v4h-1zM547 241h1v9h-1zM550 249h7v1h-7zM1391 249h2v1h-2zM1403 249h1v1h-1zM534 250h22v1h-22zM1387 250h6v1h-6zM1396 250h3v1h-3zM1403 250h5v1h-5zM1387 251h22v1h-22zM529 248h1v5h-1zM536 251h1v2h-1zM550 251h1v2h-1zM559 249h1v4h-1zM1387 252h4v1h-4zM1392 252h1v1h-1zM1397 252h2v1h-2zM1403 252h2v1h-2zM1406 252h3v1h-3zM529 253h2v1h-2zM547 251h1v3h-1zM549 253h11v1h-11zM563 237h1v17h-1zM530 254h1v1h-1zM532 249h1v6h-1zM547 254h17v1h-17zM1387 253h22v2h-22zM530 255h3v1h-3zM536 253h3v3h-3zM1387 255h6v1h-6zM1396 255h3v1h-3zM1402 255h6v1h-6zM531 256h6v1h-6zM552 255h1v2h-1zM557 255h1v2h-1zM1388 256h5v1h-5zM1397 256h2v1h-2zM1403 256h2v1h-2zM1406 256h2v1h-2zM533 257h4v1h-4zM1391 257h13v1h-13zM551 257h1v2h-1zM558 257h1v2h-1zM1392 258h1v1h-1zM1391 259h2v1h-2zM550 259h1v2h-1zM559 259h1v2h-1zM549 261h1v1h-1zM560 261h1v1h-1zM1391 260h1v2h-1zM1403 258h1v4h-1zM549 262h13v1h-13zM1095 262h4v1h-4zM1375 262h4v1h-4zM1390 262h2v1h-2zM1402 262h2v1h-2zM545 263h2v1h-2zM548 263h17v1h-17zM1093 263h7v1h-7zM1374 263h7v1h-7zM1390 263h1v1h-1zM545 264h6v1h-6zM553 264h4v1h-4zM560 264h6v1h-6zM1093 264h3v1h-3zM1097 264h3v1h-3zM1374 264h2v1h-2zM1377 264h4v1h-4zM1389 264h2v1h-2zM1402 263h1v2h-1zM544 265h22v1h-22zM1093 265h7v1h-7zM1374 265h7v1h-7zM1388 265h2v1h-2zM1401 265h2v1h-2zM544 266h3v1h-3zM548 266h2v1h-2zM554 266h2v1h-2zM560 266h1v1h-1zM562 266h4v1h-4zM1093 266h8v1h-8zM1373 266h8v1h-8zM1386 266h3v1h-3zM1401 266h1v1h-1zM544 267h22v1h-22zM1090 267h297v1h-297zM1400 267h2v1h-2zM544 268h3v1h-3zM548 268h2v1h-2zM554 268h2v1h-2zM560 268h1v1h-1zM562 268h4v1h-4zM1085 268h6v1h-6zM1094 268h2v1h-2zM1097 268h3v1h-3zM1374 268h2v1h-2zM1377 268h5v1h-5zM1400 268h1v1h-1zM544 269h22v1h-22zM1082 269h4v1h-4zM1399 269h2v1h-2zM548 270h2v1h-2zM560 270h2v1h-2zM1081 270h2v1h-2zM1398 270h2v1h-2zM548 271h14v1h-14zM1079 271h3v1h-3zM1092 268h1v4h-1zM1095 269h1v3h-1zM1097 269h2v3h-2zM1375 269h1v3h-1zM1377 269h2v3h-2zM1381 269h1v3h-1zM1397 271h2v1h-2zM548 272h15v1h-15zM1078 272h2v1h-2zM1092 272h8v1h-8zM1374 272h8v1h-8zM1397 272h1v1h-1zM1077 273h2v1h-2zM1092 273h4v1h-4zM1097 273h3v1h-3zM1374 273h2v1h-2zM1377 273h5v1h-5zM1396 273h2v1h-2zM560 273h2v2h-2zM1076 274h2v1h-2zM1092 274h8v1h-8zM1374 274h8v1h-8zM1394 274h3v1h-3zM548 273h2v3h-2zM560 275h3v1h-3zM1075 275h2v1h-2zM1392 275h3v1h-3zM547 276h3v1h-3zM562 276h1v1h-1zM1075 276h1v1h-1zM1391 276h2v1h-2zM562 277h2v1h-2zM1074 277h2v1h-2zM1095 275h1v3h-1zM1097 275h2v3h-2zM1375 275h1v3h-1zM1377 275h2v3h-2zM1381 275h1v3h-1zM1389 277h3v1h-3zM1073 278h2v1h-2zM1092 275h1v4h-1zM1094 278h2v1h-2zM1097 278h3v1h-3zM1101 268h1v11h-1zM1372 268h1v11h-1zM1374 278h2v1h-2zM1377 278h5v1h-5zM1384 278h6v1h-6zM563 278h1v2h-1zM1073 279h1v1h-1zM1088 279h297v1h-297zM547 277h1v4h-1zM549 277h1v4h-1zM562 280h2v1h-2zM1072 280h2v1h-2zM1086 280h3v1h-3zM1093 280h8v1h-8zM1373 280h8v1h-8zM547 281h3v1h-3zM1085 281h2v1h-2zM1093 281h7v1h-7zM1374 281h7v1h-7zM560 276h1v7h-1zM562 281h1v2h-1zM1072 281h1v2h-1zM1084 282h2v1h-2zM1093 282h3v1h-3zM1097 282h3v1h-3zM1374 282h2v1h-2zM1377 282h4v1h-4zM1071 283h2v1h-2zM1083 283h2v1h-2zM1093 283h7v1h-7zM1374 283h7v1h-7zM1083 284h1v1h-1zM1095 284h4v1h-4zM1375 284h4v1h-4zM548 282h2v4h-2zM560 283h2v3h-2zM1082 285h2v1h-2zM548 286h15v1h-15zM545 287h2v1h-2zM548 287h2v1h-2zM554 287h2v1h-2zM560 287h5v1h-5zM1071 284h1v4h-1zM545 288h6v1h-6zM553 288h4v1h-4zM560 288h6v1h-6zM1070 288h2v1h-2zM1082 286h1v3h-1zM544 289h22v1h-22zM1070 289h13v1h-13zM544 290h3v1h-3zM548 290h2v1h-2zM554 290h2v1h-2zM560 290h1v1h-1zM562 290h4v1h-4zM1082 290h5v1h-5zM1066 290h6v2h-6zM1075 290h3v2h-3zM1081 291h6v1h-6zM544 291h22v2h-22zM545 293h5v1h-5zM553 293h5v1h-5zM560 293h6v1h-6zM1066 292h22v2h-22zM548 294h2v1h-2zM551 294h4v1h-4zM556 294h3v1h-3zM560 294h2v1h-2zM1066 294h1v1h-1zM1068 294h4v1h-4zM1075 294h1v1h-1zM1077 294h1v1h-1zM1082 294h3v1h-3zM1086 294h2v1h-2zM547 295h16v1h-16zM1066 295h22v1h-22zM547 296h5v1h-5zM553 296h25v1h-25zM1066 296h6v1h-6zM1075 296h3v1h-3zM1081 296h6v1h-6zM547 297h16v1h-16zM1070 297h2v1h-2zM1082 297h1v1h-1zM547 298h5v1h-5zM553 298h1v1h-1zM555 298h2v1h-2zM558 298h5v1h-5zM577 297h1v2h-1zM1070 298h13v1h-13zM547 299h31v1h-31zM547 300h16v1h-16zM545 301h2v1h-2zM548 301h2v1h-2zM551 301h6v1h-6zM558 301h1v1h-1zM560 301h5v1h-5zM545 302h6v1h-6zM553 302h4v1h-4zM560 302h6v1h-6zM544 303h22v1h-22zM544 304h3v1h-3zM548 304h2v1h-2zM554 304h2v1h-2zM560 304h1v1h-1zM562 304h4v1h-4zM544 305h22v2h-22zM545 307h5v1h-5zM554 307h3v1h-3zM560 307h6v1h-6zM548 308h2v1h-2zM560 308h2v1h-2zM549 309h13v1h-13zM549 310h1v1h-1zM561 310h1v1h-1zM549 311h13v2h-13zM549 313h1v1h-1zM551 313h9v1h-9zM561 313h1v1h-1zM547 314h16v1h-16zM547 315h1v2h-1zM549 315h14v2h-14zM547 317h16v1h-16zM547 318h8v1h-8zM556 318h7v1h-7zM547 319h7v1h-7zM547 320h6v1h-6zM547 321h7v1h-7zM557 319h6v3h-6zM547 322h16v1h-16zM547 323h17v1h-17zM547 324h1v1h-1zM549 324h5v1h-5zM555 324h9v1h-9zM547 325h16v2h-16zM551 327h8v1h-8zM549 327h1v2h-1zM561 327h1v2h-1zM549 329h13v2h-13zM549 331h1v1h-1zM561 331h1v1h-1zM549 332h13v1h-13zM545 333h2v1h-2zM548 333h2v1h-2zM554 333h2v1h-2zM560 333h5v1h-5zM545 334h6v1h-6zM553 334h4v1h-4zM560 334h6v1h-6zM544 335h22v2h-22zM544 337h3v1h-3zM548 337h2v1h-2zM554 337h2v1h-2zM560 337h1v1h-1zM562 337h4v1h-4zM544 338h22v1h-22zM545 339h5v1h-5zM554 339h3v1h-3zM560 339h6v1h-6zM548 340h2v1h-2zM560 340h2v1h-2zM549 341h13v1h-13zM1070 299h1v68h-1zM1082 299h1v68h-1zM1070 367h13v1h-13zM1070 368h2v1h-2zM1082 368h1v1h-1zM1066 369h6v1h-6zM1075 369h3v1h-3zM1081 369h6v1h-6zM1066 370h22v2h-22zM1066 372h1v1h-1zM1068 372h4v1h-4zM1075 372h1v1h-1zM1077 372h1v1h-1zM1082 372h3v1h-3zM1086 372h2v1h-2zM1066 373h22v1h-22zM1081 374h6v1h-6zM1066 374h6v2h-6zM1075 374h3v2h-3zM1082 375h5v1h-5zM1070 376h13v1h-13zM549 342h1v39h-1zM561 342h1v39h-1zM549 381h13v1h-13zM1070 377h1v5h-1zM1082 377h1v5h-1zM548 382h14v1h-14zM1070 382h13v1h-13zM548 383h2v1h-2zM560 383h2v1h-2zM544 384h22v1h-22zM544 385h3v1h-3zM548 385h2v1h-2zM554 385h2v1h-2zM560 385h1v1h-1zM562 385h4v1h-4zM544 386h22v1h-22zM544 387h3v1h-3zM548 387h2v1h-2zM554 387h2v1h-2zM560 387h1v1h-1zM562 387h4v1h-4zM544 388h22v1h-22zM545 389h6v1h-6zM553 389h4v1h-4zM560 389h6v1h-6zM545 390h2v1h-2zM548 390h17v1h-17zM549 391h13v1h-13zM560 392h2v1h-2zM549 392h1v2h-1zM549 394h2v1h-2zM561 393h1v2h-1zM561 395h2v1h-2zM562 396h1v1h-1zM650 396h5v1h-5zM550 395h1v3h-1zM562 397h2v1h-2zM550 398h2v1h-2zM563 398h2v1h-2zM551 399h1v1h-1zM564 399h3v1h-3zM572 396h6v4h-6zM649 397h7v3h-7zM551 400h2v1h-2zM566 400h3v1h-3zM571 400h5v1h-5zM577 400h2v1h-2zM647 400h5v1h-5zM653 400h3v1h-3zM552 401h1v1h-1zM568 401h95v1h-95zM552 402h2v1h-2zM553 403h2v1h-2zM554 404h1v1h-1zM571 402h1v3h-1zM574 402h2v3h-2zM650 402h2v3h-2zM653 402h1v3h-1zM554 405h2v1h-2zM571 405h5v1h-5zM577 402h1v4h-1zM649 405h3v1h-3zM653 405h2v1h-2zM656 402h1v4h-1zM555 406h2v1h-2zM556 407h3v1h-3zM571 406h7v2h-7zM649 406h8v2h-8zM558 408h2v1h-2zM571 408h5v1h-5zM649 408h3v1h-3zM653 408h2v1h-2zM559 409h2v1h-2zM560 410h3v1h-3zM562 411h5v1h-5zM571 409h1v3h-1zM574 409h2v3h-2zM577 408h1v4h-1zM580 402h1v10h-1zM647 402h1v10h-1zM650 409h2v3h-2zM653 409h1v3h-1zM656 408h1v4h-1zM662 402h1v10h-1zM566 412h97v1h-97zM571 413h8v1h-8zM647 413h9v1h-9zM572 414h4v1h-4zM577 414h1v1h-1zM649 414h3v1h-3zM653 414h2v1h-2zM572 415h6v2h-6zM649 415h7v2h-7zM573 417h5v1h-5zM650 417h4v1h-4zM704 420h12v1h-12zM873 420h12v1h-12zM1109 420h13v1h-13zM1312 420h13v1h-13zM1508 420h13v1h-13zM704 421h1v5h-1zM715 421h1v5h-1zM873 421h1v5h-1zM884 421h1v5h-1zM1109 421h1v5h-1zM1121 421h1v5h-1zM1312 421h1v5h-1zM1324 421h1v5h-1zM1508 421h1v5h-1zM1520 421h1v5h-1zM704 426h13v1h-13zM873 426h13v1h-13zM1109 426h13v1h-13zM1312 426h13v1h-13zM1508 426h13v1h-13zM700 427h5v1h-5zM709 427h2v1h-2zM715 427h5v1h-5zM869 427h5v1h-5zM878 427h2v1h-2zM884 427h2v1h-2zM887 427h2v1h-2zM1105 427h5v1h-5zM1121 427h5v1h-5zM1308 427h2v1h-2zM1311 427h2v1h-2zM1317 427h2v1h-2zM1323 427h5v1h-5zM1504 427h2v1h-2zM1507 427h2v1h-2zM1513 427h2v1h-2zM1519 427h5v1h-5zM699 428h6v1h-6zM708 428h4v1h-4zM715 428h6v1h-6zM868 428h6v1h-6zM877 428h4v1h-4zM884 428h5v1h-5zM1105 428h6v1h-6zM1114 427h3v2h-3zM1120 428h6v1h-6zM1308 428h5v1h-5zM1316 428h4v1h-4zM1323 428h6v1h-6zM1504 428h5v1h-5zM1512 428h4v1h-4zM1519 428h6v1h-6zM699 429h22v2h-22zM868 429h22v2h-22zM1104 429h23v2h-23zM1307 429h22v2h-22zM1503 429h22v2h-22zM699 431h6v1h-6zM709 431h2v1h-2zM715 431h1v1h-1zM717 431h4v1h-4zM868 431h4v1h-4zM873 431h1v1h-1zM878 431h2v1h-2zM884 431h2v1h-2zM887 431h3v1h-3zM1104 431h2v1h-2zM1107 431h3v1h-3zM1114 431h1v1h-1zM1116 431h1v1h-1zM1121 431h3v1h-3zM1125 431h2v1h-2zM1307 431h3v1h-3zM1311 431h2v1h-2zM1317 431h2v1h-2zM1323 431h1v1h-1zM1325 431h4v1h-4zM1503 431h3v1h-3zM1507 431h2v1h-2zM1513 431h2v1h-2zM1519 431h1v1h-1zM1521 431h4v1h-4zM699 432h22v1h-22zM868 432h22v1h-22zM1104 432h23v1h-23zM1307 432h22v1h-22zM1503 432h22v1h-22zM700 433h5v1h-5zM708 433h4v1h-4zM715 433h5v1h-5zM869 433h5v1h-5zM877 433h4v1h-4zM884 433h5v1h-5zM1105 433h6v1h-6zM1114 433h3v1h-3zM1120 433h6v1h-6zM1308 433h5v1h-5zM1317 433h3v1h-3zM1323 433h6v1h-6zM1504 433h5v1h-5zM1512 433h4v1h-4zM1519 433h6v1h-6zM703 434h2v1h-2zM715 434h2v1h-2zM872 434h2v1h-2zM884 434h2v1h-2zM1109 434h1v1h-1zM1121 434h1v1h-1zM1311 434h2v1h-2zM1323 434h2v1h-2zM1507 434h2v1h-2zM1519 434h2v1h-2zM704 435h13v1h-13zM873 435h13v1h-13zM1109 435h13v1h-13zM1312 435h13v1h-13zM1508 435h13v1h-13zM704 436h1v18h-1zM715 436h1v18h-1zM873 436h1v18h-1zM884 436h1v18h-1zM1109 436h1v18h-1zM1121 436h1v18h-1zM1312 436h1v18h-1zM1324 436h1v18h-1zM1508 436h1v18h-1zM1519 436h1v18h-1zM704 454h12v1h-12zM873 454h12v1h-12zM1312 454h13v1h-13zM1508 454h12v1h-12zM703 455h14v1h-14zM872 455h14v1h-14zM1109 454h13v2h-13zM1311 455h14v1h-14zM1507 455h14v1h-14zM703 456h2v1h-2zM715 456h2v1h-2zM872 456h2v1h-2zM884 456h2v1h-2zM1108 456h2v1h-2zM1121 456h1v1h-1zM1311 456h2v1h-2zM1323 456h2v1h-2zM1507 456h2v1h-2zM1519 456h2v1h-2zM699 457h6v1h-6zM708 457h4v1h-4zM715 457h6v1h-6zM868 457h6v1h-6zM877 457h4v1h-4zM884 457h6v1h-6zM1105 457h6v1h-6zM1114 457h3v1h-3zM1120 457h6v1h-6zM1307 457h7v1h-7zM1316 457h4v1h-4zM1323 457h6v1h-6zM1503 457h7v1h-7zM1512 457h4v1h-4zM1519 457h6v1h-6zM699 458h22v2h-22zM868 458h22v2h-22zM1104 458h23v2h-23zM1307 458h22v2h-22zM1503 458h22v2h-22zM699 460h3v1h-3zM703 460h2v1h-2zM709 460h2v1h-2zM715 460h1v1h-1zM717 460h4v1h-4zM868 460h4v1h-4zM873 460h1v1h-1zM878 460h2v1h-2zM884 460h2v1h-2zM887 460h3v1h-3zM1104 460h2v1h-2zM1107 460h3v1h-3zM1114 460h1v1h-1zM1116 460h1v1h-1zM1121 460h3v1h-3zM1125 460h2v1h-2zM1307 460h3v1h-3zM1311 460h2v1h-2zM1317 460h2v1h-2zM1323 460h1v1h-1zM1325 460h4v1h-4zM1503 460h3v1h-3zM1507 460h2v1h-2zM1513 460h2v1h-2zM1519 460h1v1h-1zM1521 460h4v1h-4zM699 461h22v1h-22zM868 461h22v1h-22zM1104 461h23v1h-23zM1307 461h22v1h-22zM1503 461h22v1h-22zM699 462h6v1h-6zM707 462h7v1h-7zM715 462h6v1h-6zM868 462h6v1h-6zM875 462h7v1h-7zM884 462h5v1h-5zM1105 462h6v1h-6zM1112 462h7v1h-7zM1120 462h6v1h-6zM1308 462h5v1h-5zM1315 462h7v1h-7zM1323 462h6v1h-6zM1504 462h5v1h-5zM1511 462h7v1h-7zM1519 462h6v1h-6zM700 463h2v1h-2zM703 463h17v1h-17zM869 463h17v1h-17zM887 463h2v1h-2zM1105 463h21v1h-21zM1308 463h2v1h-2zM1311 463h17v1h-17zM1504 463h2v1h-2zM1507 463h17v1h-17zM702 464h31v1h-31zM871 464h31v1h-31zM1107 464h31v1h-31zM1310 464h31v1h-31zM1506 464h31v1h-31zM702 465h5v1h-5zM708 465h4v1h-4zM713 465h5v1h-5zM871 465h4v1h-4zM876 465h1v1h-1zM878 465h1v1h-1zM880 465h1v1h-1zM882 465h5v1h-5zM1110 465h2v1h-2zM1113 465h1v1h-1zM1115 465h1v1h-1zM1117 465h1v1h-1zM1119 465h3v1h-3zM1310 465h5v1h-5zM1316 465h1v1h-1zM1318 465h2v1h-2zM1321 465h5v1h-5zM1506 465h5v1h-5zM1512 465h4v1h-4zM1517 465h5v1h-5zM901 465h1v2h-1zM702 466h16v2h-16zM732 465h1v3h-1zM871 466h16v2h-16zM900 467h2v1h-2zM1107 465h2v3h-2zM1110 466h12v2h-12zM1123 465h1v3h-1zM1137 465h1v3h-1zM1310 466h16v2h-16zM1340 465h1v3h-1zM1506 466h16v2h-16zM1536 465h1v3h-1zM702 468h31v1h-31zM871 468h30v1h-30zM1107 468h31v1h-31zM1310 468h31v1h-31zM1506 468h31v1h-31zM703 469h14v1h-14zM872 469h14v1h-14zM1109 469h13v1h-13zM1311 469h14v1h-14zM1507 469h14v1h-14zM703 470h2v1h-2zM707 470h5v1h-5zM715 470h2v1h-2zM872 470h2v1h-2zM876 470h5v1h-5zM884 470h2v1h-2zM1108 470h2v1h-2zM1112 470h6v1h-6zM1121 470h1v1h-1zM1311 470h2v1h-2zM1315 470h5v1h-5zM1323 470h2v1h-2zM1507 470h2v1h-2zM1511 470h5v1h-5zM1519 470h2v1h-2zM699 471h6v1h-6zM708 471h4v1h-4zM715 471h6v1h-6zM868 471h6v1h-6zM877 471h4v1h-4zM884 471h6v1h-6zM1105 471h6v1h-6zM1114 471h3v1h-3zM1120 471h6v1h-6zM1307 471h7v1h-7zM1316 471h4v1h-4zM1323 471h6v1h-6zM1503 471h7v1h-7zM1512 471h4v1h-4zM1519 471h6v1h-6zM699 472h22v2h-22zM868 472h22v2h-22zM1104 472h23v2h-23zM1307 472h22v2h-22zM1503 472h22v2h-22zM699 474h3v1h-3zM703 474h2v1h-2zM709 474h2v1h-2zM715 474h1v1h-1zM717 474h4v1h-4zM868 474h4v1h-4zM873 474h1v1h-1zM878 474h2v1h-2zM884 474h2v1h-2zM887 474h3v1h-3zM1104 474h2v1h-2zM1107 474h3v1h-3zM1114 474h1v1h-1zM1116 474h1v1h-1zM1121 474h3v1h-3zM1125 474h2v1h-2zM1307 474h3v1h-3zM1311 474h2v1h-2zM1317 474h2v1h-2zM1323 474h1v1h-1zM1325 474h4v1h-4zM1503 474h3v1h-3zM1507 474h2v1h-2zM1513 474h2v1h-2zM1519 474h1v1h-1zM1521 474h4v1h-4zM699 475h22v1h-22zM868 475h22v1h-22zM1104 475h23v1h-23zM1307 475h22v1h-22zM1503 475h22v1h-22zM699 476h6v1h-6zM708 476h4v1h-4zM715 476h6v1h-6zM868 476h6v1h-6zM877 476h4v1h-4zM884 476h5v1h-5zM1105 476h6v1h-6zM1114 476h3v1h-3zM1120 476h6v1h-6zM1308 476h5v1h-5zM1316 476h4v1h-4zM1323 476h6v1h-6zM1504 476h5v1h-5zM1512 476h4v1h-4zM1519 476h6v1h-6zM700 477h2v1h-2zM703 477h17v1h-17zM869 477h17v1h-17zM887 477h2v1h-2zM1105 477h21v1h-21zM1308 477h2v1h-2zM1311 477h17v1h-17zM1504 477h2v1h-2zM1507 477h17v1h-17zM702 478h16v1h-16zM871 478h16v1h-16zM1108 478h15v1h-15zM1311 478h15v1h-15zM1506 478h16v1h-16zM1120 479h2v1h-2zM1109 479h2v2h-2zM1323 479h2v2h-2zM1519 479h2v2h-2zM703 479h2v3h-2zM715 479h2v3h-2zM872 479h2v3h-2zM884 479h2v3h-2zM1108 481h3v1h-3zM1311 479h2v3h-2zM1323 481h3v1h-3zM1507 479h2v3h-2zM1519 481h3v1h-3zM702 482h3v1h-3zM715 482h3v1h-3zM871 482h3v1h-3zM884 482h3v1h-3zM1108 482h1v1h-1zM1122 480h1v3h-1zM1310 482h3v1h-3zM1325 482h1v1h-1zM1506 482h3v1h-3zM1521 482h1v1h-1zM717 483h1v1h-1zM871 483h1v1h-1zM1107 483h2v1h-2zM1122 483h2v1h-2zM1325 483h2v1h-2zM1521 483h2v1h-2zM717 484h2v1h-2zM870 484h2v1h-2zM718 485h1v1h-1zM870 485h1v1h-1zM1326 484h1v2h-1zM1522 484h1v2h-1zM717 486h2v1h-2zM870 486h2v1h-2zM1107 484h1v3h-1zM1123 484h1v3h-1zM1310 483h1v4h-1zM1312 483h1v4h-1zM1325 486h2v1h-2zM1506 483h1v4h-1zM1508 483h1v4h-1zM1521 486h2v1h-2zM1107 487h2v1h-2zM1122 487h2v1h-2zM1310 487h3v1h-3zM1506 487h3v1h-3zM702 483h1v6h-1zM704 483h1v6h-1zM715 483h1v6h-1zM717 487h1v2h-1zM871 487h1v2h-1zM873 483h1v6h-1zM884 483h1v6h-1zM886 483h1v6h-1zM1108 488h1v1h-1zM1110 482h1v7h-1zM1323 482h1v7h-1zM1325 487h1v2h-1zM1519 482h1v7h-1zM1521 487h1v2h-1zM1108 489h3v1h-3zM1323 489h3v1h-3zM1519 489h3v1h-3zM1120 480h1v11h-1zM1122 488h1v3h-1zM703 489h2v3h-2zM715 489h2v3h-2zM872 489h2v3h-2zM884 489h2v3h-2zM1109 490h2v2h-2zM1120 491h2v1h-2zM1311 488h2v4h-2zM1323 490h2v2h-2zM1507 488h2v4h-2zM1519 490h2v2h-2zM702 492h16v1h-16zM871 492h16v1h-16zM1108 492h15v1h-15zM1311 492h15v1h-15zM1506 492h16v1h-16zM700 493h5v1h-5zM709 493h2v1h-2zM715 493h5v1h-5zM869 493h5v1h-5zM878 493h2v1h-2zM884 493h2v1h-2zM887 493h2v1h-2zM1105 493h5v1h-5zM1121 493h5v1h-5zM1308 493h2v1h-2zM1311 493h2v1h-2zM1317 493h2v1h-2zM1323 493h5v1h-5zM1504 493h2v1h-2zM1507 493h2v1h-2zM1513 493h2v1h-2zM1519 493h5v1h-5zM699 494h6v1h-6zM708 494h4v1h-4zM715 494h6v1h-6zM868 494h6v1h-6zM877 494h4v1h-4zM884 494h5v1h-5zM1105 494h6v1h-6zM1114 493h3v2h-3zM1120 494h6v1h-6zM1308 494h5v1h-5zM1316 494h4v1h-4zM1323 494h6v1h-6zM1504 494h5v1h-5zM1512 494h4v1h-4zM1519 494h6v1h-6zM699 495h22v1h-22zM868 495h22v1h-22zM1104 495h23v1h-23zM1307 495h22v1h-22zM1503 495h22v1h-22zM699 496h6v1h-6zM709 496h2v1h-2zM715 496h1v1h-1zM717 496h4v1h-4zM868 496h4v1h-4zM873 496h1v1h-1zM878 496h2v1h-2zM884 496h2v1h-2zM887 496h3v1h-3zM1104 496h2v1h-2zM1107 496h3v1h-3zM1114 496h1v1h-1zM1116 496h1v1h-1zM1121 496h3v1h-3zM1125 496h2v1h-2zM1307 496h3v1h-3zM1311 496h2v1h-2zM1317 496h2v1h-2zM1323 496h1v1h-1zM1325 496h4v1h-4zM1503 496h3v1h-3zM1507 496h2v1h-2zM1513 496h2v1h-2zM1519 496h1v1h-1zM1521 496h4v1h-4zM699 497h22v2h-22zM868 497h22v2h-22zM1104 497h23v2h-23zM1307 497h22v2h-22zM1503 497h22v2h-22zM699 499h6v1h-6zM708 499h4v1h-4zM715 499h6v1h-6zM868 499h6v1h-6zM877 499h4v1h-4zM884 499h6v1h-6zM1105 499h6v1h-6zM1114 499h3v1h-3zM1120 499h6v1h-6zM1307 499h7v1h-7zM1316 499h4v1h-4zM1323 499h6v1h-6zM1503 499h7v1h-7zM1512 499h4v1h-4zM1519 499h6v1h-6zM703 500h2v1h-2zM715 500h2v1h-2zM872 500h2v1h-2zM884 500h2v1h-2zM1108 500h2v1h-2zM1121 500h1v1h-1zM1311 500h2v1h-2zM1323 500h2v1h-2zM1507 500h2v1h-2zM1519 500h2v1h-2zM696 501h1v1h-1zM698 501h19v1h-19zM865 501h1v1h-1zM867 501h19v1h-19zM1101 501h2v1h-2zM1104 501h19v1h-19zM1304 501h22v1h-22zM1500 501h21v1h-21zM696 502h4v1h-4zM703 502h1v1h-1zM716 502h1v1h-1zM865 502h4v1h-4zM872 502h1v1h-1zM885 502h1v1h-1zM1101 502h4v1h-4zM1304 502h4v1h-4zM1311 502h1v1h-1zM1325 502h1v1h-1zM1500 502h4v1h-4zM1507 502h1v1h-1zM1520 502h1v1h-1zM695 503h2v1h-2zM698 503h2v1h-2zM702 503h2v1h-2zM710 502h1v2h-1zM716 503h2v1h-2zM864 503h2v1h-2zM867 503h2v1h-2zM871 503h2v1h-2zM878 502h1v2h-1zM885 503h2v1h-2zM1101 503h2v1h-2zM1104 503h1v1h-1zM1108 502h1v2h-1zM1115 502h1v2h-1zM1122 502h1v2h-1zM1303 503h5v1h-5zM1310 503h2v1h-2zM1318 502h1v2h-1zM1324 503h2v1h-2zM1499 503h5v1h-5zM1506 503h2v1h-2zM1514 502h1v2h-1zM1520 503h2v1h-2zM679 504h2v1h-2zM696 504h4v1h-4zM703 504h14v1h-14zM848 504h2v1h-2zM865 504h4v1h-4zM872 504h14v1h-14zM1101 504h4v1h-4zM1108 504h15v1h-15zM1287 504h2v1h-2zM1304 504h4v1h-4zM1311 504h14v1h-14zM1483 504h2v1h-2zM1500 504h4v1h-4zM1507 504h14v1h-14zM679 505h3v1h-3zM696 505h1v1h-1zM698 505h13v1h-13zM715 505h2v1h-2zM848 505h3v1h-3zM865 505h1v1h-1zM867 505h12v1h-12zM884 505h2v1h-2zM1085 504h2v2h-2zM1101 505h2v1h-2zM1104 505h12v1h-12zM1287 505h3v1h-3zM1304 505h15v1h-15zM1323 505h2v1h-2zM1483 505h3v1h-3zM1500 505h15v1h-15zM1519 505h2v1h-2zM679 506h4v1h-4zM714 506h1v1h-1zM848 506h4v1h-4zM883 506h1v1h-1zM1084 506h4v1h-4zM1120 505h2v2h-2zM1287 506h4v1h-4zM1483 506h4v1h-4zM679 507h1v1h-1zM682 507h3v1h-3zM689 507h8v1h-8zM848 507h1v1h-1zM851 507h3v1h-3zM858 507h8v1h-8zM1087 507h4v1h-4zM1094 507h9v1h-9zM1119 507h1v1h-1zM1287 507h1v1h-1zM1290 507h3v1h-3zM1297 507h9v1h-9zM1322 506h1v2h-1zM1483 507h1v1h-1zM1486 507h3v1h-3zM1493 507h8v1h-8zM1518 506h1v2h-1zM678 508h2v1h-2zM682 508h1v1h-1zM684 508h2v1h-2zM689 508h1v1h-1zM696 508h2v1h-2zM703 506h2v3h-2zM713 507h1v2h-1zM847 508h2v1h-2zM851 508h1v1h-1zM853 508h2v1h-2zM860 508h2v1h-2zM865 508h2v1h-2zM872 506h2v3h-2zM882 507h1v2h-1zM1084 507h1v2h-1zM1102 508h1v1h-1zM1109 506h1v3h-1zM1286 508h2v1h-2zM1292 508h2v1h-2zM1297 508h1v1h-1zM1305 508h1v1h-1zM1311 506h2v3h-2zM1321 508h1v1h-1zM1482 508h2v1h-2zM1488 508h2v1h-2zM1493 508h1v1h-1zM1500 508h2v1h-2zM1507 506h2v3h-2zM1517 508h1v1h-1zM678 509h4v1h-4zM685 509h1v1h-1zM688 509h1v1h-1zM692 508h1v2h-1zM697 509h3v1h-3zM703 509h4v1h-4zM847 509h4v1h-4zM854 509h1v1h-1zM857 508h1v2h-1zM861 509h1v1h-1zM866 509h2v1h-2zM872 509h4v1h-4zM1090 508h2v2h-2zM1094 508h1v2h-1zM1102 509h3v1h-3zM1108 509h4v1h-4zM1118 508h1v2h-1zM1286 509h3v1h-3zM1290 508h1v2h-1zM1293 509h2v1h-2zM1296 509h1v1h-1zM1300 508h1v2h-1zM1305 509h3v1h-3zM1311 509h4v1h-4zM1482 509h3v1h-3zM1486 508h1v2h-1zM1489 509h2v1h-2zM1492 509h1v1h-1zM1496 508h1v2h-1zM1501 509h3v1h-3zM1507 509h4v1h-4zM678 510h1v1h-1zM680 510h2v1h-2zM684 510h5v1h-5zM699 510h6v1h-6zM706 510h4v1h-4zM712 509h1v2h-1zM847 510h2v1h-2zM853 510h5v1h-5zM867 510h7v1h-7zM875 510h3v1h-3zM881 509h1v2h-1zM1083 509h3v2h-3zM1087 508h1v3h-1zM1090 510h4v1h-4zM1097 508h1v3h-1zM1102 510h1v1h-1zM1104 510h6v1h-6zM1111 510h4v1h-4zM1117 510h1v1h-1zM1286 510h1v1h-1zM1288 510h2v1h-2zM1293 510h4v1h-4zM1305 510h1v1h-1zM1307 510h6v1h-6zM1314 510h4v1h-4zM1320 509h1v2h-1zM1482 510h1v1h-1zM1484 510h2v1h-2zM1489 510h4v1h-4zM1500 510h2v1h-2zM1503 510h6v1h-6zM1510 510h4v1h-4zM1516 509h1v2h-1zM677 511h5v1h-5zM846 511h3v1h-3zM856 511h2v1h-2zM878 511h4v1h-4zM1083 511h4v1h-4zM1090 511h1v1h-1zM1101 511h2v1h-2zM1115 511h3v1h-3zM1286 511h4v1h-4zM1482 511h4v1h-4zM677 512h2v1h-2zM681 512h1v1h-1zM687 511h2v2h-2zM696 510h1v3h-1zM846 512h2v1h-2zM850 510h1v3h-1zM856 512h1v1h-1zM865 510h1v3h-1zM1083 512h1v1h-1zM1107 511h3v2h-3zM1116 512h2v1h-2zM1285 512h2v1h-2zM1289 512h1v1h-1zM1295 511h2v2h-2zM1318 511h3v2h-3zM1485 512h1v1h-1zM1491 511h2v2h-2zM1514 511h3v2h-3zM677 513h1v1h-1zM680 513h1v1h-1zM684 511h1v3h-1zM686 513h2v1h-2zM691 510h1v4h-1zM695 513h2v1h-2zM701 511h1v3h-1zM703 511h2v3h-2zM710 511h3v3h-3zM846 513h1v1h-1zM849 513h1v1h-1zM853 511h1v3h-1zM855 513h2v1h-2zM860 510h1v4h-1zM864 513h2v1h-2zM870 511h1v3h-1zM872 511h2v3h-2zM879 512h3v2h-3zM1082 513h2v1h-2zM1086 512h1v2h-1zM1089 512h1v2h-1zM1092 511h2v3h-2zM1118 513h1v1h-1zM1285 513h1v1h-1zM1288 513h1v1h-1zM1292 511h1v3h-1zM1295 513h1v1h-1zM1299 510h1v4h-1zM1309 511h1v3h-1zM1311 511h2v3h-2zM1318 513h2v1h-2zM1321 513h1v1h-1zM1481 512h2v2h-2zM1484 513h1v1h-1zM1488 511h1v3h-1zM1491 513h1v1h-1zM1495 510h1v4h-1zM1500 511h1v3h-1zM1505 511h1v3h-1zM1507 511h2v3h-2zM1514 513h2v1h-2zM1517 513h1v1h-1zM677 514h4v1h-4zM683 514h5v1h-5zM701 514h4v1h-4zM709 514h1v1h-1zM711 514h1v1h-1zM713 514h1v1h-1zM716 506h1v9h-1zM846 514h4v1h-4zM852 514h5v1h-5zM878 514h3v1h-3zM882 514h1v1h-1zM885 506h1v9h-1zM1082 514h4v1h-4zM1089 514h5v1h-5zM1096 511h1v4h-1zM1101 512h1v3h-1zM1106 513h1v2h-1zM1108 513h3v2h-3zM1115 513h2v2h-2zM1119 514h1v1h-1zM1121 507h1v8h-1zM1285 514h4v1h-4zM1292 514h4v1h-4zM1304 511h1v4h-1zM1309 514h4v1h-4zM1322 514h1v1h-1zM1324 506h1v9h-1zM1481 514h4v1h-4zM1488 514h4v1h-4zM1499 514h2v1h-2zM1505 514h4v1h-4zM1513 514h1v1h-1zM1515 514h1v1h-1zM1518 514h1v1h-1zM1520 506h1v9h-1zM676 515h8v1h-8zM687 515h1v1h-1zM710 515h2v1h-2zM714 515h4v1h-4zM845 515h8v1h-8zM883 515h4v1h-4zM1082 515h8v1h-8zM1100 515h2v1h-2zM1106 515h2v1h-2zM1114 515h1v1h-1zM1116 515h1v1h-1zM1120 515h4v1h-4zM1288 515h5v1h-5zM1310 515h3v1h-3zM1317 514h1v2h-1zM1319 514h1v2h-1zM1480 515h3v1h-3zM1484 515h5v1h-5zM1506 515h3v1h-3zM1514 515h2v1h-2zM677 516h2v1h-2zM690 514h1v3h-1zM695 514h1v3h-1zM700 515h1v2h-1zM702 515h3v2h-3zM708 515h1v2h-1zM846 516h2v1h-2zM859 514h1v3h-1zM864 514h1v3h-1zM869 514h1v3h-1zM871 514h3v3h-3zM877 515h1v2h-1zM884 516h3v1h-3zM1083 516h2v1h-2zM1115 516h2v1h-2zM1285 515h2v2h-2zM1295 515h1v2h-1zM1298 514h1v3h-1zM1308 515h1v2h-1zM1310 516h2v1h-2zM1316 516h1v1h-1zM1481 516h2v1h-2zM1491 515h1v2h-1zM1494 514h1v3h-1zM1504 515h1v2h-1zM1506 516h2v1h-2zM1512 515h1v2h-1zM686 516h1v2h-1zM689 517h1v1h-1zM703 517h2v1h-2zM707 517h1v1h-1zM710 516h1v2h-1zM715 516h3v2h-3zM855 515h1v3h-1zM858 517h1v1h-1zM872 517h2v1h-2zM876 517h1v1h-1zM879 515h1v3h-1zM883 517h4v1h-4zM1092 515h1v3h-1zM1095 515h1v3h-1zM1105 516h1v2h-1zM1107 516h1v2h-1zM1109 515h2v3h-2zM1113 516h1v2h-1zM1115 517h1v1h-1zM1294 517h1v1h-1zM1297 517h2v1h-2zM1303 515h1v3h-1zM1313 516h1v2h-1zM1315 517h1v1h-1zM1318 516h1v2h-1zM1490 517h1v1h-1zM1493 517h1v1h-1zM1499 515h1v3h-1zM1509 516h1v2h-1zM1511 517h1v1h-1zM1514 516h1v2h-1zM686 518h4v1h-4zM700 517h2v2h-2zM703 518h5v1h-5zM710 518h2v1h-2zM855 518h4v1h-4zM872 518h5v1h-5zM878 518h3v1h-3zM1091 518h5v1h-5zM1100 516h1v3h-1zM1109 518h5v1h-5zM1115 518h3v1h-3zM1294 518h4v1h-4zM1302 518h2v1h-2zM1308 517h2v2h-2zM1313 518h3v1h-3zM1318 518h2v1h-2zM1323 515h3v4h-3zM1490 518h4v1h-4zM1498 518h2v1h-2zM1504 517h2v2h-2zM1509 518h3v1h-3zM1514 518h3v1h-3zM1519 515h3v4h-3zM688 519h2v1h-2zM694 517h1v3h-1zM711 519h1v1h-1zM857 519h2v1h-2zM863 517h1v3h-1zM880 519h1v1h-1zM1094 519h1v1h-1zM1099 519h2v1h-2zM1105 518h2v2h-2zM1115 519h1v1h-1zM1120 516h3v4h-3zM1296 519h2v1h-2zM1302 519h1v1h-1zM1319 519h1v1h-1zM1492 519h2v1h-2zM1498 519h1v1h-1zM689 520h3v1h-3zM694 520h3v1h-3zM699 519h1v2h-1zM701 519h1v2h-1zM709 519h1v2h-1zM858 520h3v1h-3zM863 520h2v1h-2zM868 517h1v4h-1zM870 517h1v4h-1zM878 519h1v2h-1zM881 520h1v1h-1zM883 518h3v3h-3zM1094 520h4v1h-4zM1099 520h3v1h-3zM1104 520h1v1h-1zM1114 520h2v1h-2zM1297 520h3v1h-3zM1302 520h3v1h-3zM1307 519h1v2h-1zM1309 519h1v2h-1zM1317 519h1v2h-1zM1493 520h3v1h-3zM1498 520h3v1h-3zM1503 519h1v2h-1zM1505 519h1v2h-1zM1513 519h1v2h-1zM691 521h4v1h-4zM696 521h5v1h-5zM712 520h1v2h-1zM714 518h3v4h-3zM860 521h10v1h-10zM881 521h3v1h-3zM885 521h1v1h-1zM1097 521h3v1h-3zM1101 521h4v1h-4zM1106 520h1v2h-1zM1114 521h1v1h-1zM1117 519h1v3h-1zM1119 520h3v2h-3zM1299 521h4v1h-4zM1304 521h5v1h-5zM1320 520h1v2h-1zM1322 519h3v3h-3zM1495 521h4v1h-4zM1500 521h5v1h-5zM1516 519h1v3h-1zM1518 519h3v3h-3zM708 521h2v2h-2zM712 522h5v1h-5zM877 521h2v2h-2zM881 522h5v1h-5zM1104 522h2v1h-2zM1316 521h2v2h-2zM1320 522h5v1h-5zM1512 521h2v2h-2zM1516 522h5v1h-5zM699 522h2v2h-2zM703 519h1v5h-1zM713 523h4v1h-4zM868 522h2v2h-2zM872 519h1v5h-1zM882 523h4v1h-4zM1105 523h2v1h-2zM1109 519h1v5h-1zM1113 522h2v2h-2zM1118 522h4v2h-4zM1307 522h2v2h-2zM1311 517h1v7h-1zM1316 523h1v1h-1zM1321 523h4v1h-4zM1503 522h2v2h-2zM1507 517h1v7h-1zM1512 523h1v1h-1zM1517 523h4v1h-4zM700 524h4v1h-4zM707 523h2v2h-2zM710 524h7v1h-7zM869 524h4v1h-4zM876 523h2v2h-2zM879 524h7v1h-7zM1106 524h4v1h-4zM1112 524h2v1h-2zM1116 524h6v1h-6zM1308 524h4v1h-4zM1315 524h2v1h-2zM1318 524h7v1h-7zM1504 524h4v1h-4zM1511 524h2v1h-2zM1515 524h6v1h-6zM703 525h8v1h-8zM713 525h4v1h-4zM872 525h8v1h-8zM882 525h4v1h-4zM1109 525h8v1h-8zM1119 525h3v1h-3zM1311 525h8v1h-8zM1321 525h4v1h-4zM1507 525h9v1h-9zM1517 525h4v1h-4zM706 526h3v1h-3zM875 526h2v1h-2zM1112 526h2v1h-2zM1314 526h3v1h-3zM1510 526h3v1h-3zM706 527h1v1h-1zM875 527h1v1h-1zM1119 526h1v2h-1zM1121 526h1v2h-1zM1314 527h1v1h-1zM1510 527h1v1h-1zM1109 526h1v3h-1zM1111 527h1v2h-1zM1322 526h1v3h-1zM1324 526h1v3h-1zM1518 526h1v3h-1zM1520 526h1v3h-1zM703 526h1v4h-1zM705 528h1v2h-1zM714 526h1v4h-1zM716 526h1v4h-1zM872 526h1v4h-1zM874 528h1v2h-1zM883 526h1v4h-1zM885 526h1v4h-1zM1311 526h1v4h-1zM1313 528h1v2h-1zM1507 526h1v4h-1zM1509 528h1v2h-1zM1109 529h2v2h-2zM703 530h2v2h-2zM872 530h2v2h-2zM1109 531h1v1h-1zM1120 528h2v4h-2zM1311 530h2v2h-2zM1507 530h2v2h-2zM696 532h1v1h-1zM698 532h13v1h-13zM715 530h2v3h-2zM865 532h1v1h-1zM867 532h12v1h-12zM884 530h2v3h-2zM1101 532h2v1h-2zM1104 532h12v1h-12zM1121 532h1v1h-1zM1304 532h15v1h-15zM1323 529h2v4h-2zM1500 532h15v1h-15zM1519 529h2v4h-2zM703 533h14v1h-14zM872 533h14v1h-14zM1108 533h15v1h-15zM1311 533h15v1h-15zM1507 533h14v1h-14zM695 533h5v2h-5zM703 534h1v1h-1zM710 534h1v1h-1zM716 534h1v1h-1zM864 533h5v2h-5zM872 534h1v1h-1zM878 534h1v1h-1zM885 534h1v1h-1zM1101 533h4v2h-4zM1108 534h1v1h-1zM1115 534h1v1h-1zM1122 534h1v1h-1zM1303 533h5v2h-5zM1311 534h1v1h-1zM1318 534h1v1h-1zM1325 534h1v1h-1zM1499 533h5v2h-5zM1507 534h1v1h-1zM1514 534h1v1h-1zM1520 534h1v1h-1zM696 535h1v1h-1zM698 535h19v1h-19zM865 535h1v1h-1zM867 535h19v1h-19zM1101 535h2v1h-2zM1104 535h19v1h-19zM1304 535h22v1h-22zM1500 535h21v1h-21zM703 536h14v1h-14zM872 536h14v1h-14zM1109 536h13v1h-13zM1311 536h14v1h-14zM1507 536h14v1h-14zM703 537h2v1h-2zM715 537h2v1h-2zM872 537h2v1h-2zM884 537h2v1h-2zM1108 537h2v1h-2zM1121 537h1v1h-1zM1311 537h2v1h-2zM1323 537h2v1h-2zM1507 537h2v1h-2zM1519 537h2v1h-2zM699 538h22v1h-22zM868 538h22v1h-22zM1104 538h23v1h-23zM1307 538h22v1h-22zM1503 538h22v1h-22zM699 539h3v1h-3zM703 539h2v1h-2zM709 539h2v1h-2zM715 539h1v1h-1zM717 539h4v1h-4zM868 539h4v1h-4zM873 539h1v1h-1zM878 539h2v1h-2zM884 539h2v1h-2zM887 539h3v1h-3zM1104 539h2v1h-2zM1107 539h3v1h-3zM1114 539h1v1h-1zM1116 539h1v1h-1zM1121 539h3v1h-3zM1125 539h2v1h-2zM1307 539h3v1h-3zM1311 539h2v1h-2zM1317 539h2v1h-2zM1323 539h1v1h-1zM1325 539h4v1h-4zM1503 539h3v1h-3zM1507 539h2v1h-2zM1513 539h2v1h-2zM1519 539h1v1h-1zM1521 539h4v1h-4zM699 540h22v2h-22zM868 540h22v2h-22zM1104 540h23v2h-23zM1307 540h22v2h-22zM1503 540h22v2h-22zM884 542h6v1h-6zM1307 542h7v1h-7zM1503 542h7v1h-7zM699 542h6v2h-6zM708 542h4v2h-4zM715 542h6v2h-6zM868 542h6v2h-6zM877 542h4v2h-4zM884 543h5v1h-5zM1105 542h6v2h-6zM1114 542h3v2h-3zM1120 542h6v2h-6zM1308 543h5v1h-5zM1316 542h4v2h-4zM1323 542h6v2h-6zM1504 543h5v1h-5zM1512 542h4v2h-4zM1519 542h6v2h-6zM703 544h14v1h-14zM872 544h14v1h-14zM1109 544h13v1h-13zM1311 544h14v1h-14zM1507 544h14v1h-14zM704 545h1v2h-1zM706 546h2v1h-2zM873 545h1v2h-1zM875 546h2v1h-2zM1109 545h1v2h-1zM1111 546h2v1h-2zM1312 545h1v2h-1zM1314 546h2v1h-2zM1508 545h1v2h-1zM1510 546h2v1h-2zM704 547h2v1h-2zM707 547h1v1h-1zM873 547h2v1h-2zM876 547h1v1h-1zM1109 547h2v1h-2zM1112 547h1v1h-1zM1312 547h2v1h-2zM1315 547h1v1h-1zM1508 547h2v1h-2zM1511 547h1v1h-1zM704 548h1v1h-1zM708 548h1v1h-1zM873 548h1v1h-1zM877 548h1v1h-1zM1109 548h1v1h-1zM1113 548h1v1h-1zM1312 548h1v1h-1zM1316 548h1v1h-1zM1508 548h1v1h-1zM1512 548h1v1h-1zM703 549h2v1h-2zM709 549h1v1h-1zM872 549h2v1h-2zM878 549h1v1h-1zM1108 549h2v1h-2zM1114 549h1v1h-1zM1311 549h2v1h-2zM1317 549h1v1h-1zM1507 549h2v1h-2zM1513 549h1v1h-1zM702 550h1v1h-1zM710 550h1v1h-1zM871 550h1v1h-1zM879 550h1v1h-1zM1107 550h1v1h-1zM1115 550h1v1h-1zM1310 550h1v1h-1zM1318 550h1v1h-1zM1506 550h1v1h-1zM1514 550h1v1h-1zM701 551h1v1h-1zM711 551h1v1h-1zM870 551h1v1h-1zM880 551h1v1h-1zM1106 551h1v1h-1zM1116 551h2v1h-2zM1309 551h1v1h-1zM1319 551h1v1h-1zM1505 551h1v1h-1zM1515 551h1v1h-1zM700 552h1v1h-1zM712 552h2v1h-2zM869 552h1v1h-1zM881 552h2v1h-2zM1105 552h1v1h-1zM1118 552h1v1h-1zM1308 552h1v1h-1zM1320 552h2v1h-2zM1504 552h1v1h-1zM1516 552h2v1h-2zM699 553h1v1h-1zM712 553h1v1h-1zM868 553h1v1h-1zM881 553h1v1h-1zM1104 553h1v1h-1zM1117 553h1v1h-1zM1307 553h1v1h-1zM1320 553h1v1h-1zM1503 553h1v1h-1zM1516 553h1v1h-1zM698 554h1v1h-1zM711 554h1v1h-1zM867 554h1v1h-1zM880 554h1v1h-1zM1103 554h1v1h-1zM1116 554h1v1h-1zM1306 554h1v1h-1zM1319 554h1v1h-1zM1502 554h1v1h-1zM1515 554h1v1h-1zM697 555h1v1h-1zM710 555h1v1h-1zM866 555h1v1h-1zM879 555h1v1h-1zM1102 555h1v1h-1zM1115 555h1v1h-1zM1305 555h1v1h-1zM1318 555h1v1h-1zM1501 555h1v1h-1zM1514 555h1v1h-1zM696 556h1v1h-1zM709 556h1v1h-1zM865 556h1v1h-1zM878 556h1v1h-1zM1101 556h1v1h-1zM1114 556h1v1h-1zM1304 556h1v1h-1zM1317 556h1v1h-1zM1500 556h1v1h-1zM1513 556h1v1h-1zM695 557h1v1h-1zM708 557h1v1h-1zM864 557h1v1h-1zM877 557h1v1h-1zM1100 557h1v1h-1zM1113 557h1v1h-1zM1303 557h1v1h-1zM1316 557h1v1h-1zM1499 557h1v1h-1zM1512 557h1v1h-1zM694 558h1v1h-1zM707 558h1v1h-1zM863 558h1v1h-1zM876 558h1v1h-1zM1099 558h1v1h-1zM1112 558h1v1h-1zM1302 558h1v1h-1zM1315 558h1v1h-1zM1498 558h1v1h-1zM1511 558h1v1h-1zM693 559h1v1h-1zM704 550h1v10h-1zM706 559h1v1h-1zM862 559h1v1h-1zM873 550h1v10h-1zM875 559h1v1h-1zM1098 559h1v1h-1zM1109 550h1v10h-1zM1111 559h1v1h-1zM1301 559h1v1h-1zM1312 550h1v10h-1zM1314 559h1v1h-1zM1497 559h1v1h-1zM1508 550h1v10h-1zM1510 559h1v1h-1zM688 560h2v1h-2zM692 560h1v1h-1zM704 560h2v1h-2zM857 560h2v1h-2zM861 560h1v1h-1zM873 560h2v1h-2zM1094 560h1v1h-1zM1097 560h1v1h-1zM1109 560h2v1h-2zM1297 560h1v1h-1zM1300 560h1v1h-1zM1312 560h2v1h-2zM1493 560h1v1h-1zM1496 560h1v1h-1zM1508 560h2v1h-2zM687 561h1v1h-1zM689 561h1v1h-1zM691 561h1v1h-1zM704 561h1v1h-1zM856 561h1v1h-1zM858 561h1v1h-1zM860 561h1v1h-1zM873 561h1v1h-1zM1093 561h2v1h-2zM1096 561h1v1h-1zM1109 561h1v1h-1zM1296 561h2v1h-2zM1299 561h1v1h-1zM1312 561h1v1h-1zM1492 561h2v1h-2zM1495 561h1v1h-1zM1508 561h1v1h-1zM686 562h1v1h-1zM690 562h2v1h-2zM703 562h2v1h-2zM855 562h1v1h-1zM859 562h2v1h-2zM872 562h2v1h-2zM1092 562h1v1h-1zM1095 562h2v1h-2zM1108 562h2v1h-2zM1295 562h1v1h-1zM1298 562h2v1h-2zM1311 562h2v1h-2zM1491 562h1v1h-1zM1494 562h2v1h-2zM1507 562h2v1h-2zM685 563h2v1h-2zM691 563h1v1h-1zM702 563h1v1h-1zM854 563h2v1h-2zM860 563h1v1h-1zM871 563h1v1h-1zM1091 563h2v1h-2zM1096 563h1v1h-1zM1107 563h1v1h-1zM1294 563h2v1h-2zM1299 563h1v1h-1zM1310 563h1v1h-1zM1490 563h2v1h-2zM1495 563h1v1h-1zM1506 563h1v1h-1zM686 564h1v1h-1zM692 564h1v1h-1zM701 564h1v1h-1zM855 564h1v1h-1zM861 564h1v1h-1zM870 564h1v1h-1zM1091 564h1v1h-1zM1097 564h1v1h-1zM1106 564h1v1h-1zM1294 564h1v1h-1zM1300 564h1v1h-1zM1309 564h1v1h-1zM1490 564h1v1h-1zM1496 564h1v1h-1zM1505 564h1v1h-1zM687 565h1v1h-1zM693 565h1v1h-1zM700 565h1v1h-1zM856 565h1v1h-1zM862 565h1v1h-1zM869 565h1v1h-1zM1092 565h1v1h-1zM1098 565h1v1h-1zM1105 565h1v1h-1zM1295 565h1v1h-1zM1301 565h1v1h-1zM1308 565h1v1h-1zM1491 565h1v1h-1zM1497 565h1v1h-1zM1504 565h1v1h-1zM688 566h1v1h-1zM694 566h1v1h-1zM699 566h1v1h-1zM857 566h1v1h-1zM863 566h1v1h-1zM868 566h1v1h-1zM1093 566h1v1h-1zM1099 566h1v1h-1zM1104 566h1v1h-1zM1296 566h1v1h-1zM1302 566h1v1h-1zM1307 566h1v1h-1zM1492 566h1v1h-1zM1498 566h1v1h-1zM1503 566h1v1h-1zM689 567h1v1h-1zM695 567h1v1h-1zM698 567h1v1h-1zM858 567h1v1h-1zM864 567h1v1h-1zM867 567h1v1h-1zM1094 567h1v1h-1zM1100 567h1v1h-1zM1103 567h1v1h-1zM1297 567h1v1h-1zM1303 567h1v1h-1zM1306 567h1v1h-1zM1493 567h1v1h-1zM1499 567h1v1h-1zM1502 567h1v1h-1zM690 568h1v1h-1zM696 568h2v1h-2zM859 568h1v1h-1zM865 568h2v1h-2zM1095 568h1v1h-1zM1101 568h2v1h-2zM1298 568h1v1h-1zM1304 568h2v1h-2zM1494 568h1v1h-1zM1500 568h2v1h-2zM691 569h1v1h-1zM697 569h1v1h-1zM860 569h1v1h-1zM866 569h1v1h-1zM1096 569h1v1h-1zM1102 569h1v1h-1zM1299 569h1v1h-1zM1305 569h1v1h-1zM1495 569h1v1h-1zM1501 569h1v1h-1zM692 570h1v1h-1zM698 570h1v1h-1zM861 570h1v1h-1zM867 570h1v1h-1zM1097 570h1v1h-1zM1103 570h2v1h-2zM1300 570h1v1h-1zM1306 570h1v1h-1zM1496 570h1v1h-1zM1502 570h1v1h-1zM693 571h1v1h-1zM697 571h1v1h-1zM862 571h1v1h-1zM866 571h1v1h-1zM1098 571h1v1h-1zM1103 571h1v1h-1zM1301 571h1v1h-1zM1305 571h1v1h-1zM1497 571h1v1h-1zM1501 571h1v1h-1zM694 572h1v1h-1zM696 572h1v1h-1zM863 572h1v1h-1zM865 572h1v1h-1zM1099 572h1v1h-1zM1102 572h1v1h-1zM1302 572h1v1h-1zM1304 572h1v1h-1zM1498 572h1v1h-1zM1500 572h1v1h-1zM695 573h2v1h-2zM704 563h1v11h-1zM715 545h1v29h-1zM864 573h2v1h-2zM873 563h1v11h-1zM884 545h1v29h-1zM1100 573h3v1h-3zM1109 563h1v11h-1zM1120 545h1v29h-1zM1303 573h2v1h-2zM1312 563h1v11h-1zM1323 545h1v29h-1zM1499 573h2v1h-2zM1508 563h1v11h-1zM1519 545h1v29h-1zM704 574h13v1h-13zM873 574h13v1h-13zM1109 574h13v1h-13zM1312 574h13v1h-13zM1508 574h13v1h-13zM700 575h5v1h-5zM709 575h2v1h-2zM715 575h5v1h-5zM869 575h5v1h-5zM878 575h2v1h-2zM884 575h2v1h-2zM887 575h2v1h-2zM1105 575h5v1h-5zM1308 575h2v1h-2zM1311 575h2v1h-2zM1317 575h2v1h-2zM1323 575h5v1h-5zM1504 575h2v1h-2zM1507 575h2v1h-2zM1513 575h2v1h-2zM1519 575h5v1h-5zM699 576h6v1h-6zM708 576h4v1h-4zM715 576h6v1h-6zM868 576h6v1h-6zM877 576h4v1h-4zM884 576h5v1h-5zM1105 576h6v1h-6zM1114 575h3v2h-3zM1120 575h6v2h-6zM1308 576h5v1h-5zM1316 576h4v1h-4zM1323 576h6v1h-6zM1504 576h5v1h-5zM1512 576h4v1h-4zM1519 576h6v1h-6zM699 577h22v2h-22zM868 577h22v2h-22zM1104 577h23v2h-23zM1307 577h22v2h-22zM1503 577h22v2h-22zM699 579h6v1h-6zM709 579h2v1h-2zM715 579h1v1h-1zM717 579h4v1h-4zM868 579h4v1h-4zM873 579h1v1h-1zM878 579h2v1h-2zM884 579h2v1h-2zM887 579h3v1h-3zM1104 579h2v1h-2zM1107 579h3v1h-3zM1114 579h1v1h-1zM1116 579h1v1h-1zM1121 579h3v1h-3zM1125 579h2v1h-2zM1307 579h3v1h-3zM1311 579h2v1h-2zM1317 579h2v1h-2zM1323 579h1v1h-1zM1325 579h4v1h-4zM1503 579h3v1h-3zM1507 579h2v1h-2zM1513 579h2v1h-2zM1519 579h1v1h-1zM1521 579h4v1h-4zM699 580h22v1h-22zM868 580h22v1h-22zM1104 580h23v1h-23zM1307 580h22v1h-22zM1503 580h22v1h-22zM700 581h5v1h-5zM707 581h6v1h-6zM715 581h5v1h-5zM869 581h5v1h-5zM876 581h6v1h-6zM884 581h5v1h-5zM1105 581h6v1h-6zM1112 581h6v1h-6zM1120 581h6v1h-6zM1308 581h5v1h-5zM1315 581h6v1h-6zM1323 581h6v1h-6zM1504 581h5v1h-5zM1511 581h6v1h-6zM1519 581h6v1h-6zM703 582h2v1h-2zM706 582h3v1h-3zM712 582h2v1h-2zM715 582h2v1h-2zM872 582h2v1h-2zM875 582h2v1h-2zM880 582h3v1h-3zM884 582h2v1h-2zM1109 582h1v1h-1zM1111 582h3v1h-3zM1117 582h3v1h-3zM1121 582h1v1h-1zM1311 582h2v1h-2zM1314 582h3v1h-3zM1320 582h2v1h-2zM1323 582h2v1h-2zM1507 582h2v1h-2zM1510 582h3v1h-3zM1516 582h2v1h-2zM1519 582h2v1h-2zM702 583h16v1h-16zM871 583h16v1h-16zM1107 583h17v1h-17zM1310 583h16v1h-16zM1506 583h16v1h-16zM702 584h5v1h-5zM708 584h25v1h-25zM871 584h5v1h-5zM877 584h25v1h-25zM1110 584h2v1h-2zM1113 584h25v1h-25zM1310 584h5v1h-5zM1316 584h25v1h-25zM1506 584h5v1h-5zM1512 584h25v1h-25zM702 585h16v1h-16zM871 585h16v1h-16zM1110 585h12v1h-12zM1310 585h16v1h-16zM1506 585h16v1h-16zM702 586h5v1h-5zM708 586h1v1h-1zM710 586h2v1h-2zM713 586h5v1h-5zM732 585h1v2h-1zM871 586h6v1h-6zM878 586h1v1h-1zM880 586h1v1h-1zM882 586h5v1h-5zM901 585h1v2h-1zM1110 586h2v1h-2zM1113 586h1v1h-1zM1115 586h1v1h-1zM1117 586h1v1h-1zM1119 586h3v1h-3zM1123 585h1v2h-1zM1137 585h1v2h-1zM1310 586h5v1h-5zM1316 586h1v1h-1zM1318 586h2v1h-2zM1321 586h5v1h-5zM1340 585h1v2h-1zM1506 586h5v1h-5zM1512 586h1v1h-1zM1514 586h2v1h-2zM1517 586h5v1h-5zM1536 585h1v2h-1zM702 587h31v1h-31zM871 587h31v1h-31zM1107 584h2v4h-2zM1110 587h28v1h-28zM1310 587h31v1h-31zM1506 587h31v1h-31zM702 588h16v1h-16zM871 588h16v1h-16zM1107 588h17v1h-17zM1310 588h16v1h-16zM1506 588h16v1h-16zM700 589h5v1h-5zM707 589h7v1h-7zM715 589h5v1h-5zM869 589h5v1h-5zM875 589h5v1h-5zM881 589h1v1h-1zM884 589h2v1h-2zM887 589h2v1h-2zM1105 589h5v1h-5zM1112 589h7v1h-7zM1121 589h5v1h-5zM1308 589h2v1h-2zM1311 589h2v1h-2zM1315 589h7v1h-7zM1323 589h5v1h-5zM1504 589h2v1h-2zM1507 589h2v1h-2zM1511 589h7v1h-7zM1519 589h5v1h-5zM699 590h6v1h-6zM708 590h4v1h-4zM715 590h6v1h-6zM868 590h6v1h-6zM877 590h4v1h-4zM884 590h5v1h-5zM1105 590h6v1h-6zM1114 590h3v1h-3zM1120 590h6v1h-6zM1308 590h5v1h-5zM1316 590h4v1h-4zM1323 590h6v1h-6zM1504 590h5v1h-5zM1512 590h4v1h-4zM1519 590h6v1h-6zM699 591h22v2h-22zM868 591h22v2h-22zM1104 591h23v2h-23zM1307 591h22v2h-22zM1503 591h22v2h-22zM699 593h6v1h-6zM709 593h2v1h-2zM715 593h1v1h-1zM717 593h4v1h-4zM868 593h4v1h-4zM873 593h1v1h-1zM878 593h2v1h-2zM884 593h2v1h-2zM887 593h3v1h-3zM1104 593h2v1h-2zM1107 593h3v1h-3zM1114 593h1v1h-1zM1116 593h1v1h-1zM1121 593h3v1h-3zM1125 593h2v1h-2zM1307 593h3v1h-3zM1311 593h2v1h-2zM1317 593h2v1h-2zM1323 593h1v1h-1zM1325 593h4v1h-4zM1503 593h3v1h-3zM1507 593h2v1h-2zM1513 593h2v1h-2zM1519 593h1v1h-1zM1521 593h4v1h-4zM699 594h22v1h-22zM868 594h22v1h-22zM1104 594h23v1h-23zM1307 594h22v1h-22zM1503 594h22v1h-22zM700 595h5v1h-5zM708 595h4v1h-4zM715 595h5v1h-5zM869 595h5v1h-5zM877 595h4v1h-4zM884 595h5v1h-5zM1105 595h6v1h-6zM1114 595h3v1h-3zM1120 595h6v1h-6zM1308 595h5v1h-5zM1317 595h3v1h-3zM1323 595h6v1h-6zM1504 595h5v1h-5zM1512 595h4v1h-4zM1519 595h6v1h-6zM703 596h2v1h-2zM715 596h2v1h-2zM872 596h2v1h-2zM884 596h2v1h-2zM1109 596h1v1h-1zM1121 596h1v1h-1zM1311 596h2v1h-2zM1323 596h2v1h-2zM1507 596h2v1h-2zM1519 596h2v1h-2zM704 597h13v1h-13zM873 597h13v1h-13zM1109 597h13v1h-13zM1312 597h13v1h-13zM1508 597h13v1h-13zM873 598h1v46h-1zM884 598h1v46h-1zM1109 598h1v46h-1zM1121 598h1v46h-1zM873 644h12v1h-12zM872 645h14v1h-14zM1109 644h13v2h-13zM872 646h2v1h-2zM884 646h2v1h-2zM1108 646h2v1h-2zM1121 646h1v1h-1zM868 647h22v1h-22zM1104 647h23v1h-23zM868 648h4v1h-4zM873 648h1v1h-1zM878 648h2v1h-2zM884 648h2v1h-2zM887 648h3v1h-3zM1104 648h2v1h-2zM1107 648h3v1h-3zM1114 648h1v1h-1zM1116 648h1v1h-1zM1121 648h3v1h-3zM1125 648h2v1h-2zM868 649h22v1h-22zM1104 649h23v1h-23zM868 650h4v1h-4zM873 650h1v1h-1zM878 650h2v1h-2zM884 650h2v1h-2zM887 650h3v1h-3zM1104 650h2v1h-2zM1107 650h3v1h-3zM1114 650h1v1h-1zM1116 650h1v1h-1zM1121 650h3v1h-3zM1125 650h2v1h-2zM868 651h22v1h-22zM1104 651h23v1h-23zM868 652h6v1h-6zM877 652h4v1h-4zM884 652h5v1h-5zM1105 652h6v1h-6zM1114 652h3v1h-3zM1120 652h6v1h-6zM1312 598h1v55h-1zM1324 598h1v55h-1zM869 653h17v1h-17zM887 653h2v1h-2zM1105 653h21v1h-21zM1312 653h13v1h-13zM873 654h12v1h-12zM1109 654h13v1h-13zM1311 654h2v1h-2zM1323 654h2v1h-2zM884 655h1v1h-1zM1121 655h1v1h-1zM1308 655h5v1h-5zM1317 655h3v1h-3zM1323 655h6v1h-6zM884 656h2v1h-2zM1120 656h2v1h-2zM1109 655h1v3h-1zM1307 656h22v2h-22zM873 655h1v4h-1zM885 657h1v2h-1zM1108 658h2v1h-2zM1307 658h3v1h-3zM1311 658h2v1h-2zM1317 658h2v1h-2zM1323 658h1v1h-1zM1325 658h4v1h-4zM873 659h2v1h-2zM885 659h2v1h-2zM896 659h6v1h-6zM998 659h6v1h-6zM1020 659h6v1h-6zM1093 659h5v1h-5zM1108 659h1v1h-1zM1307 659h22v1h-22zM886 660h2v1h-2zM1107 660h2v1h-2zM1120 657h1v4h-1zM1308 660h5v1h-5zM1316 660h4v1h-4zM1323 660h6v1h-6zM874 660h1v2h-1zM887 661h2v1h-2zM1106 661h2v1h-2zM1119 661h2v1h-2zM1308 661h2v1h-2zM1311 661h2v1h-2zM1317 661h2v1h-2zM1323 661h5v1h-5zM874 662h2v1h-2zM888 662h2v1h-2zM895 660h7v3h-7zM998 660h7v3h-7zM1020 660h7v3h-7zM1092 660h7v3h-7zM1104 662h3v1h-3zM1119 662h1v1h-1zM1312 662h13v1h-13zM875 663h1v1h-1zM889 663h4v1h-4zM895 663h3v1h-3zM899 663h1v1h-1zM901 663h2v1h-2zM996 663h3v1h-3zM1000 663h1v1h-1zM1002 663h3v1h-3zM1020 663h4v1h-4zM1025 663h2v1h-2zM1091 663h8v1h-8zM1102 663h3v1h-3zM1118 663h2v1h-2zM875 664h2v1h-2zM892 664h211v1h-211zM1118 664h1v1h-1zM876 665h2v1h-2zM1117 665h2v1h-2zM1312 663h1v3h-1zM877 666h1v1h-1zM1117 666h1v1h-1zM1311 666h2v1h-2zM877 667h2v1h-2zM894 665h2v3h-2zM897 665h1v3h-1zM1002 665h1v3h-1zM1004 665h2v3h-2zM1019 665h1v3h-1zM1022 665h2v3h-2zM1025 665h1v3h-1zM1093 665h2v3h-2zM1096 665h1v3h-1zM1116 667h2v1h-2zM1235 667h4v1h-4zM1296 667h4v1h-4zM1311 667h1v1h-1zM1323 663h1v5h-1zM878 668h2v1h-2zM894 668h4v1h-4zM899 665h1v4h-1zM901 665h1v4h-1zM998 665h1v4h-1zM1000 665h1v4h-1zM1002 668h4v1h-4zM1019 668h5v1h-5zM1025 668h2v1h-2zM1092 668h3v1h-3zM1096 668h2v1h-2zM1099 665h1v4h-1zM1115 668h2v1h-2zM1233 668h7v1h-7zM1295 668h7v1h-7zM1310 668h2v1h-2zM1322 668h2v1h-2zM879 669h2v1h-2zM1114 669h2v1h-2zM1233 669h3v1h-3zM1237 669h3v1h-3zM1295 669h3v1h-3zM1299 669h3v1h-3zM1309 669h2v1h-2zM880 670h2v1h-2zM894 669h8v2h-8zM998 669h8v2h-8zM1019 669h8v2h-8zM1092 669h8v2h-8zM1113 670h2v1h-2zM1233 670h7v1h-7zM1295 670h7v1h-7zM1308 670h2v1h-2zM1322 669h1v2h-1zM881 671h2v1h-2zM894 671h4v1h-4zM1002 671h4v1h-4zM1019 671h5v1h-5zM1025 671h2v1h-2zM1092 671h3v1h-3zM1096 671h2v1h-2zM1111 671h3v1h-3zM1233 671h8v1h-8zM1294 671h8v1h-8zM1306 671h3v1h-3zM1321 671h2v1h-2zM882 672h3v1h-3zM1110 672h2v1h-2zM1229 672h78v1h-78zM1321 672h1v1h-1zM884 673h3v1h-3zM1107 673h4v1h-4zM1225 673h5v1h-5zM1234 673h2v1h-2zM1237 673h3v1h-3zM1295 673h3v1h-3zM1299 673h4v1h-4zM1320 673h2v1h-2zM886 674h4v1h-4zM894 672h2v3h-2zM897 672h1v3h-1zM899 671h1v4h-1zM901 671h1v4h-1zM903 665h2v10h-2zM995 665h2v10h-2zM998 671h1v4h-1zM1000 671h1v4h-1zM1002 672h1v3h-1zM1004 672h2v3h-2zM1019 672h1v3h-1zM1022 672h2v3h-2zM1025 672h1v3h-1zM1028 665h1v10h-1zM1090 665h1v10h-1zM1093 672h2v3h-2zM1096 672h1v3h-1zM1099 671h1v4h-1zM1105 674h3v1h-3zM1223 674h3v1h-3zM1319 674h2v1h-2zM889 675h118v1h-118zM1018 675h88v1h-88zM1221 675h3v1h-3zM1319 675h1v1h-1zM895 676h3v1h-3zM899 676h1v1h-1zM901 676h2v1h-2zM996 676h3v1h-3zM1000 676h1v1h-1zM1002 676h3v1h-3zM1018 676h6v1h-6zM1025 676h3v1h-3zM1090 676h5v1h-5zM1096 676h3v1h-3zM1220 676h2v1h-2zM1232 673h1v4h-1zM1235 674h1v3h-1zM1237 674h2v3h-2zM1296 674h2v3h-2zM1299 674h1v3h-1zM1301 674h2v3h-2zM1318 676h2v1h-2zM1218 677h3v1h-3zM1232 677h8v1h-8zM1295 677h8v1h-8zM1317 677h2v1h-2zM1217 678h2v1h-2zM1232 678h4v1h-4zM1237 678h3v1h-3zM1295 678h3v1h-3zM1299 678h4v1h-4zM1316 678h2v1h-2zM895 677h7v3h-7zM998 677h7v3h-7zM1006 676h1v4h-1zM1018 677h1v3h-1zM1020 677h7v3h-7zM1092 677h7v3h-7zM1216 679h2v1h-2zM1232 679h8v1h-8zM1295 679h8v1h-8zM1315 679h2v1h-2zM896 680h6v1h-6zM998 680h6v1h-6zM1006 680h13v1h-13zM1020 680h6v1h-6zM1093 680h5v1h-5zM1215 680h2v1h-2zM1313 680h3v1h-3zM1002 681h2v1h-2zM1005 681h2v1h-2zM1011 681h2v1h-2zM1017 681h5v1h-5zM1215 681h1v1h-1zM1311 681h3v1h-3zM1002 682h5v1h-5zM1010 682h4v1h-4zM1017 682h6v1h-6zM1214 682h2v1h-2zM1235 680h1v3h-1zM1237 680h2v3h-2zM1296 680h2v3h-2zM1299 680h1v3h-1zM1301 680h2v3h-2zM1308 682h4v1h-4zM1001 683h22v1h-22zM1214 683h1v1h-1zM1232 680h1v4h-1zM1234 683h2v1h-2zM1237 683h3v1h-3zM1241 673h1v11h-1zM1293 673h1v11h-1zM1295 683h3v1h-3zM1299 683h4v1h-4zM1304 683h5v1h-5zM1001 684h3v1h-3zM1005 684h2v1h-2zM1011 684h2v1h-2zM1017 684h1v1h-1zM1019 684h4v1h-4zM1213 684h2v1h-2zM1228 684h77v1h-77zM1212 685h2v1h-2zM1226 685h3v1h-3zM1233 685h8v1h-8zM1294 685h8v1h-8zM1001 685h22v2h-22zM1225 686h2v1h-2zM1233 686h7v1h-7zM1295 686h7v1h-7zM1002 687h5v1h-5zM1011 687h3v1h-3zM1017 687h6v1h-6zM1212 686h1v2h-1zM1224 687h2v1h-2zM1233 687h3v1h-3zM1237 687h3v1h-3zM1295 687h3v1h-3zM1299 687h3v1h-3zM1005 688h2v1h-2zM1017 688h2v1h-2zM1211 688h2v1h-2zM1223 688h2v1h-2zM1233 688h7v1h-7zM1295 688h7v1h-7zM1006 689h13v1h-13zM1235 689h4v1h-4zM1296 689h4v1h-4zM1223 689h1v2h-1zM1222 691h2v1h-2zM1211 689h1v5h-1zM1222 692h1v2h-1zM1210 694h14v1h-14zM1207 695h5v1h-5zM1216 695h2v1h-2zM1222 695h2v1h-2zM1225 695h2v1h-2zM1206 696h6v1h-6zM1215 696h3v1h-3zM1221 696h6v1h-6zM1206 697h22v2h-22zM1206 699h4v1h-4zM1211 699h1v1h-1zM1216 699h2v1h-2zM1222 699h2v1h-2zM1225 699h3v1h-3zM1206 700h22v1h-22zM1206 701h6v1h-6zM1215 701h3v1h-3zM1222 701h5v1h-5zM1210 702h2v1h-2zM1222 702h2v1h-2zM1210 703h14v1h-14zM704 598h1v134h-1zM715 598h1v134h-1zM1508 598h1v134h-1zM1519 598h1v134h-1zM704 732h12v1h-12zM1508 732h12v1h-12zM703 733h14v1h-14zM1507 733h14v1h-14zM703 734h2v1h-2zM715 734h2v1h-2zM1507 734h2v1h-2zM1519 734h2v1h-2zM699 735h22v1h-22zM1503 735h22v1h-22zM699 736h3v1h-3zM703 736h2v1h-2zM709 736h2v1h-2zM715 736h1v1h-1zM717 736h4v1h-4zM1503 736h3v1h-3zM1507 736h2v1h-2zM1513 736h2v1h-2zM1519 736h1v1h-1zM1521 736h4v1h-4zM1210 704h1v34h-1zM1222 704h1v34h-1zM699 737h22v2h-22zM1006 690h1v49h-1zM1018 690h1v49h-1zM1210 738h14v1h-14zM1503 737h22v2h-22zM1006 739h13v1h-13zM1210 739h2v1h-2zM1222 739h2v1h-2zM1503 739h7v1h-7zM699 739h6v2h-6zM708 739h4v2h-4zM715 739h6v2h-6zM1005 740h14v1h-14zM1206 740h6v1h-6zM1215 740h4v1h-4zM1221 740h7v1h-7zM1504 740h5v1h-5zM1512 739h4v2h-4zM1519 739h6v2h-6zM703 741h14v1h-14zM1005 741h2v1h-2zM1017 741h2v1h-2zM1507 741h14v1h-14zM704 742h12v1h-12zM1001 742h22v1h-22zM1206 741h22v2h-22zM1508 742h12v1h-12zM715 743h1v1h-1zM1001 743h3v1h-3zM1005 743h2v1h-2zM1011 743h2v1h-2zM1017 743h1v1h-1zM1019 743h4v1h-4zM1206 743h4v1h-4zM1211 743h1v1h-1zM1216 743h2v1h-2zM1222 743h2v1h-2zM1225 743h3v1h-3zM715 744h2v1h-2zM1206 744h22v1h-22zM1508 743h1v2h-1zM704 743h1v3h-1zM716 745h1v1h-1zM1001 744h22v2h-22zM1206 745h6v1h-6zM1215 745h3v1h-3zM1221 745h6v1h-6zM1507 745h2v1h-2zM704 746h2v1h-2zM716 746h2v1h-2zM1001 746h7v1h-7zM1207 746h5v1h-5zM1216 746h2v1h-2zM1222 746h2v1h-2zM1225 746h2v1h-2zM1507 746h1v1h-1zM717 747h1v1h-1zM727 747h6v1h-6zM993 747h6v1h-6zM1002 747h5v1h-5zM1010 746h4v2h-4zM1017 746h6v2h-6zM1025 747h6v1h-6zM1210 747h14v1h-14zM1225 747h6v1h-6zM1491 747h6v1h-6zM1506 747h2v1h-2zM1519 743h1v5h-1zM705 747h1v2h-1zM717 748h2v1h-2zM1005 748h14v1h-14zM1505 748h2v1h-2zM1518 748h2v1h-2zM705 749h2v1h-2zM718 749h2v1h-2zM726 748h7v2h-7zM1024 748h7v2h-7zM1224 748h7v2h-7zM1504 749h2v1h-2zM1518 749h1v1h-1zM719 750h3v1h-3zM726 750h8v1h-8zM993 748h7v3h-7zM1006 749h1v2h-1zM1018 749h1v2h-1zM1024 750h8v1h-8zM1202 747h7v4h-7zM1210 748h1v3h-1zM1222 748h1v3h-1zM1224 750h8v1h-8zM1491 748h7v3h-7zM1503 750h2v1h-2zM1517 750h2v1h-2zM706 750h1v2h-1zM721 751h3v1h-3zM725 751h4v1h-4zM730 751h1v1h-1zM732 751h264v1h-264zM997 751h10v1h-10zM1018 751h9v1h-9zM1028 751h1v1h-1zM1030 751h174v1h-174zM1205 751h6v1h-6zM1222 751h5v1h-5zM1228 751h1v1h-1zM1230 751h264v1h-264zM1495 751h4v1h-4zM1500 751h4v1h-4zM1517 751h1v1h-1zM706 752h2v1h-2zM723 752h13v1h-13zM991 752h10v1h-10zM1023 752h11v1h-11zM1200 752h10v1h-10zM1223 752h11v1h-11zM1488 752h13v1h-13zM1516 752h2v1h-2zM707 753h2v1h-2zM1516 753h1v1h-1zM708 754h1v1h-1zM1515 754h2v1h-2zM708 755h2v1h-2zM725 753h2v3h-2zM728 753h1v3h-1zM994 753h2v3h-2zM997 753h1v3h-1zM1023 753h2v3h-2zM1026 753h1v3h-1zM1203 753h1v3h-1zM1205 753h2v3h-2zM1209 753h1v3h-1zM1223 753h2v3h-2zM1226 753h1v3h-1zM1492 753h2v3h-2zM1495 753h1v3h-1zM1497 753h2v3h-2zM1514 755h2v1h-2zM709 756h2v1h-2zM725 756h4v1h-4zM730 753h1v4h-1zM732 753h1v4h-1zM993 756h3v1h-3zM997 756h2v1h-2zM1000 753h1v4h-1zM1023 756h4v1h-4zM1028 753h1v4h-1zM1030 753h1v4h-1zM1202 756h2v1h-2zM1205 756h5v1h-5zM1223 756h4v1h-4zM1228 753h1v4h-1zM1230 753h1v4h-1zM1491 756h3v1h-3zM1495 756h4v1h-4zM1513 756h2v1h-2zM710 757h2v1h-2zM1512 757h2v1h-2zM711 758h2v1h-2zM725 757h8v2h-8zM993 757h8v2h-8zM1023 757h8v2h-8zM1202 757h8v2h-8zM1223 757h8v2h-8zM1491 757h8v2h-8zM1511 758h2v1h-2zM712 759h3v1h-3zM725 759h4v1h-4zM993 759h3v1h-3zM997 759h2v1h-2zM1023 759h4v1h-4zM1205 759h5v1h-5zM1223 759h4v1h-4zM1491 759h3v1h-3zM1495 759h4v1h-4zM1510 759h2v1h-2zM714 760h3v1h-3zM1508 760h3v1h-3zM716 761h2v1h-2zM725 760h2v2h-2zM728 760h1v2h-1zM994 760h2v2h-2zM997 760h1v2h-1zM1205 760h2v2h-2zM1492 760h2v2h-2zM1506 761h3v1h-3zM717 762h5v1h-5zM725 762h4v1h-4zM730 759h1v4h-1zM732 759h1v4h-1zM734 753h2v10h-2zM991 753h1v10h-1zM993 762h3v1h-3zM997 762h2v1h-2zM1000 759h1v4h-1zM1023 760h2v3h-2zM1026 760h1v3h-1zM1028 759h1v4h-1zM1030 759h1v4h-1zM1032 753h2v10h-2zM1200 753h1v10h-1zM1203 759h1v4h-1zM1205 762h3v1h-3zM1209 760h1v3h-1zM1223 760h2v3h-2zM1226 760h1v3h-1zM1228 759h1v4h-1zM1230 759h1v4h-1zM1232 753h2v10h-2zM1488 753h2v10h-2zM1491 762h3v1h-3zM1495 760h1v3h-1zM1497 760h2v3h-2zM1503 762h4v1h-4zM721 763h286v1h-286zM1018 763h486v1h-486zM726 764h8v1h-8zM991 764h9v1h-9zM1024 764h8v1h-8zM1201 764h8v1h-8zM1224 764h8v1h-8zM1489 764h9v1h-9zM727 765h2v1h-2zM730 765h1v1h-1zM732 765h1v1h-1zM993 765h3v1h-3zM997 765h2v1h-2zM1006 764h1v2h-1zM1018 764h1v2h-1zM1025 765h2v1h-2zM1028 765h1v1h-1zM1030 765h1v1h-1zM1202 765h2v1h-2zM1205 765h4v1h-4zM1225 765h2v1h-2zM1228 765h1v1h-1zM1230 765h1v1h-1zM1491 765h3v1h-3zM1495 765h2v1h-2zM1006 766h13v1h-13zM726 766h7v2h-7zM993 766h7v2h-7zM1002 767h2v1h-2zM1005 767h17v1h-17zM1024 766h7v2h-7zM1202 766h7v2h-7zM1224 766h7v2h-7zM1491 766h7v2h-7zM728 768h5v1h-5zM993 768h5v1h-5zM1002 768h5v1h-5zM1010 768h4v1h-4zM1017 768h6v1h-6zM1026 768h5v1h-5zM1203 768h5v1h-5zM1226 768h5v1h-5zM1491 768h5v1h-5zM1001 769h22v1h-22zM1001 770h3v1h-3zM1005 770h2v1h-2zM1011 770h2v1h-2zM1017 770h1v1h-1zM1019 770h4v1h-4zM1001 771h22v2h-22zM1001 773h7v1h-7zM1010 773h4v1h-4zM1017 773h6v1h-6zM1005 774h2v1h-2zM1017 774h2v1h-2zM1005 775h14v1h-14zM1006 776h1v34h-1zM1018 776h1v34h-1zM1006 810h13v1h-13zM1005 811h2v1h-2zM1017 811h2v1h-2zM1001 812h7v1h-7zM1010 812h4v1h-4zM1017 812h6v1h-6zM1001 813h22v2h-22zM1001 815h3v1h-3zM1005 815h2v1h-2zM1011 815h2v1h-2zM1017 815h1v1h-1zM1019 815h4v1h-4zM1001 816h22v1h-22zM1002 817h5v1h-5zM1009 817h6v1h-6zM1017 817h6v1h-6zM1002 818h2v1h-2zM1005 818h2v1h-2zM1008 818h8v1h-8zM1017 818h5v1h-5zM1004 819h31v1h-31zM1004 820h5v1h-5zM1010 820h1v1h-1zM1012 820h2v1h-2zM1015 820h5v1h-5zM1004 821h16v2h-16zM1034 820h1v3h-1zM1004 823h5v1h-5zM1010 823h25v1h-25zM1004 824h16v1h-16zM1005 825h2v1h-2zM1009 825h7v1h-7zM1017 825h2v1h-2zM1001 826h7v1h-7zM1010 826h4v1h-4zM1017 826h6v1h-6zM1001 827h22v2h-22zM1001 829h3v1h-3zM1005 829h2v1h-2zM1011 829h2v1h-2zM1017 829h1v1h-1zM1019 829h4v1h-4zM1001 830h22v1h-22zM1002 831h5v1h-5zM1010 831h4v1h-4zM1017 831h6v1h-6zM1002 832h2v1h-2zM1005 832h2v1h-2zM1011 832h2v1h-2zM1017 832h5v1h-5zM1005 833h15v1h-15zM1017 834h2v3h-2zM1005 834h2v4h-2zM1004 838h3v1h-3zM1019 837h1v2h-1zM1019 839h2v1h-2zM1020 840h1v2h-1zM1004 839h1v4h-1zM1006 839h1v4h-1zM1019 842h2v1h-2zM1004 843h3v1h-3zM1017 837h1v7h-1zM1019 843h1v1h-1zM1017 844h3v1h-3zM1005 844h2v3h-2zM1017 845h2v2h-2zM1005 847h15v1h-15zM1005 848h14v1h-14zM1005 849h2v1h-2zM1017 849h2v1h-2zM1001 850h22v1h-22zM1001 851h3v1h-3zM1005 851h2v1h-2zM1011 851h2v1h-2zM1017 851h1v1h-1zM1019 851h4v1h-4zM1001 852h22v1h-22zM1001 853h3v1h-3zM1005 853h2v1h-2zM1011 853h2v1h-2zM1017 853h1v1h-1zM1019 853h4v1h-4zM1001 854h22v1h-22zM1002 855h5v1h-5zM1010 855h4v1h-4zM1017 855h6v1h-6zM1002 856h2v1h-2zM1005 856h17v1h-17zM1006 857h13v1h-13zM1006 858h1v1h-1zM1017 858h1v1h-1zM1007 859h1v2h-1zM1016 859h1v2h-1zM1008 861h1v2h-1zM1015 861h1v2h-1zM988 863h9v1h-9zM988 864h2v1h-2zM996 864h3v1h-3zM1009 863h1v2h-1zM1014 863h1v2h-1zM987 865h3v1h-3zM1004 865h17v1h-17zM986 866h1v1h-1zM988 866h1v1h-1zM998 865h1v2h-1zM1006 866h11v1h-11zM986 867h3v1h-3zM985 868h1v1h-1zM998 867h3v2h-3zM1004 866h1v3h-1zM1007 867h1v2h-1zM984 869h2v1h-2zM991 869h22v1h-22zM984 870h1v1h-1zM996 870h3v1h-3zM1007 870h7v1h-7zM1016 867h1v4h-1zM984 871h2v1h-2zM994 871h2v1h-2zM1014 871h5v1h-5zM994 872h1v1h-1zM987 868h1v6h-1zM991 870h1v4h-1zM993 873h1v1h-1zM987 874h7v1h-7zM985 872h1v5h-1zM1016 872h1v5h-1zM1018 872h1v5h-1zM985 877h2v1h-2zM1012 871h1v7h-1zM1016 877h2v1h-2zM988 875h1v4h-1zM991 875h1v4h-1zM993 875h1v4h-1zM1004 870h1v9h-1zM1007 871h1v8h-1zM1011 878h6v1h-6zM991 879h22v1h-22zM1004 880h2v1h-2zM1007 880h1v2h-1zM1016 879h1v3h-1zM986 878h1v5h-1zM993 880h1v3h-1zM1004 881h1v2h-1zM1006 882h11v1h-11zM1020 866h1v17h-1zM1004 883h17v1h-17zM987 883h1v2h-1zM989 879h1v6h-1zM993 883h3v2h-3zM1010 884h1v1h-1zM1013 884h1v1h-1zM987 885h9v1h-9zM1009 885h1v1h-1zM1014 885h1v1h-1zM989 886h5v1h-5zM1008 886h1v2h-1zM1015 886h1v2h-1zM1007 888h1v2h-1zM1016 888h1v2h-1zM1006 890h1v2h-1zM1017 890h1v2h-1zM1006 892h13v1h-13zM1002 893h5v1h-5zM1001 894h7v1h-7zM1010 893h4v2h-4zM1017 893h6v2h-6zM1001 895h22v2h-22zM1001 897h3v1h-3zM1005 897h2v1h-2zM1011 897h2v1h-2zM1017 897h1v1h-1zM1019 897h4v1h-4zM1001 898h22v1h-22zM1002 899h5v1h-5zM1011 899h3v1h-3zM1017 899h6v1h-6zM1005 900h2v1h-2zM1017 900h2v1h-2zM1005 901h15v1h-15zM1017 902h2v3h-2zM1005 902h2v4h-2zM1004 906h3v1h-3zM1019 905h1v2h-1zM1019 907h2v1h-2zM1020 908h1v2h-1zM1004 907h1v4h-1zM1006 907h1v4h-1zM1019 910h2v1h-2zM1004 911h3v1h-3zM1017 905h1v7h-1zM1019 911h1v1h-1zM1017 912h3v1h-3zM1005 912h2v3h-2zM1017 913h2v2h-2zM1005 915h15v1h-15zM1002 916h2v1h-2zM1005 916h17v1h-17zM1002 917h5v1h-5zM1010 917h4v1h-4zM1017 917h6v1h-6zM1289 917h13v1h-13zM1479 917h13v1h-13zM1001 918h22v1h-22zM1001 919h3v1h-3zM1005 919h2v1h-2zM1011 919h2v1h-2zM1017 919h1v1h-1zM1019 919h4v1h-4zM1001 920h22v1h-22zM1001 921h3v1h-3zM1005 921h2v1h-2zM1011 921h2v1h-2zM1017 921h1v1h-1zM1019 921h4v1h-4zM1001 922h22v1h-22zM1289 918h1v5h-1zM1301 918h1v5h-1zM1479 918h1v5h-1zM1491 918h1v5h-1zM1005 923h2v1h-2zM1009 923h3v1h-3zM1013 923h2v1h-2zM1017 923h2v1h-2zM1289 923h13v1h-13zM1479 923h13v1h-13zM1005 924h14v1h-14zM1286 924h5v1h-5zM1295 924h2v1h-2zM1301 924h2v1h-2zM1304 924h2v1h-2zM1475 924h2v1h-2zM1478 924h2v1h-2zM1484 924h2v1h-2zM1490 924h5v1h-5zM1004 925h31v1h-31zM1285 925h6v1h-6zM1294 925h4v1h-4zM1301 925h5v1h-5zM1475 925h5v1h-5zM1483 925h4v1h-4zM1490 925h6v1h-6zM1004 926h16v1h-16zM1004 927h5v1h-5zM1010 927h1v1h-1zM1012 927h2v1h-2zM1015 927h5v1h-5zM1285 926h22v2h-22zM1474 926h22v2h-22zM1004 928h16v1h-16zM1034 926h1v3h-1zM1285 928h4v1h-4zM1290 928h1v1h-1zM1295 928h2v1h-2zM1301 928h2v1h-2zM1304 928h3v1h-3zM1474 928h3v1h-3zM1478 928h2v1h-2zM1484 928h2v1h-2zM1490 928h1v1h-1zM1492 928h4v1h-4zM1004 929h31v1h-31zM1285 929h22v1h-22zM1474 929h22v1h-22zM1002 930h2v1h-2zM1005 930h17v1h-17zM1285 930h6v1h-6zM1294 930h3v1h-3zM1301 930h5v1h-5zM1475 930h5v1h-5zM1484 930h3v1h-3zM1490 930h6v1h-6zM1002 931h5v1h-5zM1009 931h5v1h-5zM1017 931h6v1h-6zM1289 931h2v1h-2zM1301 931h2v1h-2zM1478 931h2v1h-2zM1490 931h2v1h-2zM1001 932h22v1h-22zM1289 932h14v1h-14zM1479 932h13v1h-13zM1001 933h3v1h-3zM1005 933h2v1h-2zM1011 933h2v1h-2zM1017 933h1v1h-1zM1019 933h4v1h-4zM1001 934h22v1h-22zM1001 935h3v1h-3zM1005 935h2v1h-2zM1011 935h2v1h-2zM1017 935h1v1h-1zM1019 935h4v1h-4zM1001 936h22v1h-22zM1005 937h2v1h-2zM1017 937h2v1h-2zM1005 938h14v1h-14zM1006 939h13v3h-13zM1006 942h1v1h-1zM1009 942h7v1h-7zM1018 942h1v1h-1zM1004 943h16v1h-16zM1006 944h14v1h-14zM1004 944h1v2h-1zM1006 945h5v1h-5zM1012 945h8v1h-8zM1004 946h16v2h-16zM1004 948h7v1h-7zM1004 949h6v2h-6zM1014 948h6v3h-6zM1004 951h7v1h-7zM1013 951h7v1h-7zM1004 952h4v1h-4zM1009 952h12v1h-12zM1004 953h1v1h-1zM1006 953h15v1h-15zM1004 954h7v1h-7zM1012 954h8v1h-8zM1004 955h16v1h-16zM1008 956h9v1h-9zM1010 957h5v1h-5zM1006 956h1v3h-1zM1018 956h1v3h-1zM1006 959h13v3h-13zM1002 962h2v1h-2zM1005 962h17v1h-17zM1002 963h5v1h-5zM1010 963h4v1h-4zM1017 963h6v1h-6zM1001 964h22v1h-22zM1001 965h3v1h-3zM1005 965h2v1h-2zM1011 965h2v1h-2zM1017 965h1v1h-1zM1019 965h4v1h-4zM1001 966h22v2h-22zM1001 968h7v1h-7zM1010 968h4v1h-4zM1017 968h6v1h-6zM1005 969h2v1h-2zM1017 969h2v1h-2zM1005 970h14v1h-14zM1344 989h5v1h-5zM1428 989h5v1h-5zM1343 990h6v2h-6zM1427 990h7v2h-7zM1343 992h4v1h-4zM1348 992h1v1h-1zM1427 992h2v1h-2zM1430 992h4v1h-4zM1342 993h8v1h-8zM1426 993h8v1h-8zM1336 994h105v1h-105zM1344 995h3v1h-3zM1430 995h3v1h-3zM1342 995h1v3h-1zM1345 996h2v2h-2zM1430 996h2v2h-2zM1434 995h1v3h-1zM1342 998h5v1h-5zM1348 995h1v4h-1zM1428 995h1v4h-1zM1430 998h5v1h-5zM1006 971h1v30h-1zM1018 971h1v30h-1zM1342 999h7v2h-7zM1427 999h8v2h-8zM1006 1001h13v1h-13zM1342 1001h5v1h-5zM1430 1001h5v1h-5zM1005 1002h14v1h-14zM1005 1003h2v1h-2zM1017 1003h2v1h-2zM1001 1004h22v1h-22zM1336 995h1v10h-1zM1342 1002h1v3h-1zM1345 1002h2v3h-2zM1348 1001h1v4h-1zM1350 995h2v10h-2zM1425 995h1v10h-1zM1428 1001h1v4h-1zM1430 1002h2v3h-2zM1434 1002h1v3h-1zM1440 995h1v10h-1zM1001 1005h3v1h-3zM1005 1005h2v1h-2zM1011 1005h2v1h-2zM1017 1005h1v1h-1zM1019 1005h4v1h-4zM1336 1005h105v1h-105zM1001 1006h22v1h-22zM1342 1006h5v1h-5zM1348 1006h2v1h-2zM1426 1006h3v1h-3zM1430 1006h4v1h-4zM1001 1007h3v1h-3zM1005 1007h2v1h-2zM1011 1007h2v1h-2zM1017 1007h1v1h-1zM1019 1007h4v1h-4zM1001 1008h22v1h-22zM1002 1009h5v1h-5zM1010 1009h4v1h-4zM1017 1009h6v1h-6zM1427 1007h7v3h-7zM1002 1010h2v1h-2zM1005 1010h17v1h-17zM1343 1007h6v4h-6zM1428 1010h6v1h-6zM1006 1011h13v1h-13zM1006 1012h1v5h-1zM1018 1012h1v5h-1zM1006 1017h13v1h-13zM783 1027h13v1h-13zM783 1028h1v5h-1zM795 1028h1v5h-1zM783 1033h13v1h-13zM779 1034h5v1h-5zM778 1035h7v1h-7zM787 1034h4v2h-4zM794 1034h6v2h-6zM778 1036h22v2h-22zM778 1038h3v1h-3zM782 1038h2v1h-2zM788 1038h2v1h-2zM794 1038h1v1h-1zM796 1038h4v1h-4zM778 1039h22v1h-22zM779 1040h5v1h-5zM788 1040h3v1h-3zM794 1040h6v1h-6zM782 1041h2v1h-2zM794 1041h2v1h-2zM783 1042h13v1h-13zM783 1043h1v83h-1zM795 1043h1v83h-1zM1289 933h1v193h-1zM1301 933h1v193h-1zM783 1126h13v1h-13zM1289 1126h14v1h-14zM782 1127h2v1h-2zM794 1127h2v1h-2zM1289 1127h2v1h-2zM1301 1127h2v1h-2zM779 1128h5v1h-5zM788 1128h3v1h-3zM794 1128h6v1h-6zM1285 1128h6v1h-6zM1294 1128h3v1h-3zM1301 1128h5v1h-5zM778 1129h22v2h-22zM1285 1129h22v2h-22zM778 1131h3v1h-3zM782 1131h2v1h-2zM788 1131h2v1h-2zM794 1131h1v1h-1zM796 1131h4v1h-4zM1285 1131h4v1h-4zM1290 1131h1v1h-1zM1295 1131h2v1h-2zM1301 1131h2v1h-2zM1304 1131h3v1h-3zM778 1132h22v1h-22zM1285 1132h22v1h-22zM779 1133h5v1h-5zM787 1133h4v1h-4zM794 1133h6v1h-6zM1285 1133h6v1h-6zM1294 1133h4v1h-4zM1301 1133h5v1h-5zM779 1134h2v1h-2zM782 1134h2v1h-2zM788 1134h2v1h-2zM794 1134h5v1h-5zM1286 1134h5v1h-5zM1295 1134h2v1h-2zM1301 1134h2v1h-2zM1304 1134h2v1h-2zM783 1135h13v1h-13zM1289 1135h14v1h-14zM1290 1136h1v1h-1zM794 1136h1v2h-1zM1289 1137h2v1h-2zM794 1138h2v1h-2zM783 1136h1v4h-1zM795 1139h1v1h-1zM1289 1138h1v2h-1zM1301 1136h1v4h-1zM783 1140h2v1h-2zM795 1140h2v1h-2zM807 1140h5v1h-5zM1273 1140h4v1h-4zM1288 1140h2v1h-2zM1300 1140h2v1h-2zM796 1141h1v1h-1zM805 1141h7v1h-7zM1273 1141h7v1h-7zM1287 1141h2v1h-2zM784 1141h1v2h-1zM796 1142h2v1h-2zM805 1142h3v1h-3zM809 1142h1v1h-1zM811 1142h1v1h-1zM1273 1142h1v1h-1zM1275 1142h5v1h-5zM1287 1142h1v1h-1zM784 1143h2v1h-2zM797 1143h3v1h-3zM805 1143h7v1h-7zM1273 1143h7v1h-7zM1285 1143h3v1h-3zM1300 1141h1v3h-1zM785 1144h1v1h-1zM799 1144h3v1h-3zM805 1144h8v1h-8zM1272 1144h8v1h-8zM1284 1144h2v1h-2zM1299 1144h2v1h-2zM785 1145h2v1h-2zM801 1145h484v1h-484zM1298 1145h2v1h-2zM786 1146h1v1h-1zM804 1146h4v1h-4zM1275 1146h6v1h-6zM1298 1146h1v1h-1zM786 1147h2v1h-2zM1297 1147h2v1h-2zM787 1148h2v1h-2zM1296 1148h2v1h-2zM788 1149h1v1h-1zM804 1147h2v3h-2zM807 1147h1v3h-1zM809 1146h1v4h-1zM811 1146h1v4h-1zM1273 1146h1v4h-1zM1275 1147h2v3h-2zM1279 1147h2v3h-2zM1296 1149h1v1h-1zM788 1150h2v1h-2zM804 1150h8v1h-8zM1273 1150h8v1h-8zM1295 1150h2v1h-2zM789 1151h2v1h-2zM804 1151h4v1h-4zM809 1151h1v1h-1zM811 1151h1v1h-1zM1273 1151h1v1h-1zM1275 1151h6v1h-6zM1294 1151h2v1h-2zM790 1152h3v1h-3zM804 1152h8v1h-8zM1273 1152h8v1h-8zM1292 1152h3v1h-3zM792 1153h2v1h-2zM1291 1153h2v1h-2zM793 1154h3v1h-3zM1289 1154h3v1h-3zM795 1155h4v1h-4zM804 1153h2v3h-2zM807 1153h1v3h-1zM809 1153h1v3h-1zM811 1153h1v3h-1zM813 1146h2v10h-2zM1270 1146h2v10h-2zM1273 1153h1v3h-1zM1275 1153h2v3h-2zM1279 1153h2v3h-2zM1286 1155h4v1h-4zM798 1156h17v1h-17zM1270 1156h17v1h-17zM804 1157h477v1h-477zM805 1158h8v1h-8zM1272 1158h8v1h-8zM805 1159h7v1h-7zM1273 1159h7v1h-7zM805 1160h3v1h-3zM809 1160h1v1h-1zM811 1160h1v1h-1zM1273 1160h1v1h-1zM1275 1160h5v1h-5zM805 1161h7v1h-7zM1273 1161h7v1h-7zM1479 933h1v336h-1zM1491 933h1v336h-1zM1479 1269h13v1h-13zM1478 1270h14v1h-14zM1478 1271h2v1h-2zM1490 1271h2v1h-2zM1474 1272h22v1h-22zM1474 1273h3v1h-3zM1478 1273h2v1h-2zM1484 1273h2v1h-2zM1490 1273h1v1h-1zM1492 1273h4v1h-4zM1474 1274h22v1h-22zM1474 1275h3v1h-3zM1478 1275h2v1h-2zM1484 1275h2v1h-2zM1490 1275h1v1h-1zM1492 1275h4v1h-4zM1474 1276h22v1h-22zM1475 1277h5v1h-5zM1483 1277h4v1h-4zM1490 1277h6v1h-6zM1475 1278h2v1h-2zM1478 1278h17v1h-17zM1479 1279h13v1h-13zM1479 1280h1v2h-1zM1478 1282h2v1h-2zM1478 1283h1v1h-1zM821 1284h6v1h-6zM1462 1284h6v1h-6zM1477 1284h2v1h-2zM1490 1280h1v5h-1zM1476 1285h2v1h-2zM1489 1285h2v1h-2zM1476 1286h1v1h-1zM1489 1286h1v1h-1zM820 1285h7v3h-7zM1258 1284h6v4h-6zM1462 1285h7v3h-7zM1474 1287h3v1h-3zM1488 1287h2v1h-2zM820 1288h3v1h-3zM824 1288h4v1h-4zM1258 1288h4v1h-4zM1263 1288h2v1h-2zM1460 1288h9v1h-9zM1472 1288h3v1h-3zM815 1289h74v1h-74zM1251 1289h222v1h-222zM1488 1288h1v2h-1zM812 1290h4v1h-4zM1487 1290h2v1h-2zM809 1291h4v1h-4zM1486 1291h2v1h-2zM807 1292h3v1h-3zM822 1290h1v3h-1zM824 1290h2v3h-2zM1257 1290h1v3h-1zM1260 1290h2v3h-2zM1463 1290h2v3h-2zM1466 1290h1v3h-1zM1468 1290h2v3h-2zM1485 1292h2v1h-2zM806 1293h2v1h-2zM819 1290h1v4h-1zM821 1293h2v1h-2zM824 1293h3v1h-3zM1257 1293h5v1h-5zM1263 1290h1v4h-1zM1462 1293h3v1h-3zM1466 1293h4v1h-4zM1485 1293h1v1h-1zM805 1294h2v1h-2zM1484 1294h2v1h-2zM804 1295h2v1h-2zM819 1294h8v2h-8zM1257 1294h7v2h-7zM1462 1294h8v2h-8zM1482 1295h3v1h-3zM803 1296h2v1h-2zM821 1296h2v1h-2zM824 1296h3v1h-3zM1257 1296h5v1h-5zM1462 1296h3v1h-3zM1466 1296h4v1h-4zM1481 1296h2v1h-2zM802 1297h2v1h-2zM1479 1297h3v1h-3zM801 1298h2v1h-2zM1477 1298h3v1h-3zM801 1299h1v1h-1zM819 1296h1v4h-1zM822 1297h1v3h-1zM824 1297h2v3h-2zM828 1290h1v10h-1zM888 1290h1v10h-1zM1251 1290h1v10h-1zM1257 1297h1v3h-1zM1260 1297h2v3h-2zM1263 1296h1v4h-1zM1266 1290h1v10h-1zM1460 1290h1v10h-1zM1463 1297h2v3h-2zM1466 1297h1v3h-1zM1468 1297h2v3h-2zM1475 1299h3v1h-3zM800 1300h2v1h-2zM817 1300h72v1h-72zM1251 1300h225v1h-225zM800 1301h1v1h-1zM814 1301h4v1h-4zM820 1301h3v1h-3zM824 1301h4v1h-4zM1257 1301h5v1h-5zM1263 1301h3v1h-3zM1460 1301h5v1h-5zM1466 1301h3v1h-3zM799 1302h2v1h-2zM813 1302h2v1h-2zM1258 1302h7v1h-7zM812 1303h2v1h-2zM799 1303h1v2h-1zM811 1304h2v1h-2zM820 1302h7v3h-7zM1462 1302h7v3h-7zM798 1305h2v1h-2zM810 1305h2v1h-2zM821 1305h6v1h-6zM1258 1303h6v3h-6zM1462 1305h6v1h-6zM810 1306h1v1h-1zM809 1307h2v1h-2zM798 1306h1v4h-1zM809 1308h1v2h-1zM797 1310h13v1h-13zM794 1311h17v1h-17zM812 1311h2v1h-2zM793 1312h6v1h-6zM802 1312h3v1h-3zM808 1312h6v1h-6zM793 1313h22v1h-22zM793 1314h4v1h-4zM798 1314h1v1h-1zM803 1314h2v1h-2zM809 1314h2v1h-2zM812 1314h3v1h-3zM793 1315h22v1h-22zM793 1316h4v1h-4zM798 1316h1v1h-1zM803 1316h2v1h-2zM809 1316h2v1h-2zM812 1316h3v1h-3zM793 1317h22v1h-22zM796 1318h1v1h-1zM798 1318h1v1h-1zM809 1318h2v1h-2zM797 1319h14v1h-14zM797 1320h13v1h-13zM1033 1345h13v1h-13zM1033 1346h1v4h-1zM1045 1346h1v4h-1zM1033 1350h13v1h-13zM1029 1351h21v1h-21zM1029 1352h6v1h-6zM1038 1352h3v1h-3zM1044 1352h6v1h-6zM1028 1353h22v1h-22zM1028 1354h2v1h-2zM1031 1354h3v1h-3zM1038 1354h1v1h-1zM1040 1354h1v1h-1zM1044 1354h4v1h-4zM1049 1354h1v1h-1zM1028 1355h22v1h-22zM1028 1356h2v1h-2zM1031 1356h3v1h-3zM1038 1356h1v1h-1zM1040 1356h1v1h-1zM1044 1356h4v1h-4zM1049 1356h1v1h-1zM1028 1357h22v1h-22zM1032 1358h2v1h-2zM1044 1358h2v1h-2zM1033 1359h13v2h-13zM1033 1361h1v28h-1zM1045 1361h1v28h-1zM1033 1389h13v1h-13zM1033 1390h1v1h-1zM1044 1390h2v1h-2zM1029 1391h6v1h-6zM1038 1391h3v1h-3zM1044 1391h6v1h-6zM1028 1392h22v1h-22zM1028 1393h2v1h-2zM1031 1393h3v1h-3zM1038 1393h1v1h-1zM1040 1393h1v1h-1zM1044 1393h4v1h-4zM1049 1393h1v1h-1zM1028 1394h22v2h-22zM1029 1396h6v1h-6zM1029 1397h5v1h-5zM1038 1396h3v2h-3zM1044 1396h6v2h-6zM1033 1398h13v1h-13zM1044 1399h2v1h-2zM1033 1399h1v2h-1zM1033 1401h2v1h-2zM1045 1400h1v3h-1zM1045 1403h2v1h-2zM1034 1402h1v3h-1zM1046 1404h2v1h-2zM1056 1404h7v1h-7zM1168 1404h7v1h-7zM1034 1405h2v1h-2zM1047 1405h1v1h-1zM1056 1405h4v1h-4zM1061 1405h2v1h-2zM1168 1405h3v1h-3zM1172 1405h3v1h-3zM1047 1406h3v1h-3zM1035 1406h1v2h-1zM1049 1407h2v1h-2zM1056 1406h7v2h-7zM1168 1406h7v2h-7zM1035 1408h2v1h-2zM1050 1408h127v1h-127zM1036 1409h1v1h-1zM1055 1409h10v1h-10zM1166 1409h17v1h-17zM1036 1410h2v1h-2zM1182 1410h3v1h-3zM1037 1411h2v1h-2zM1184 1411h3v1h-3zM1038 1412h2v1h-2zM1055 1410h1v3h-1zM1058 1410h2v3h-2zM1061 1410h1v3h-1zM1169 1410h2v3h-2zM1172 1410h1v3h-1zM1175 1410h1v3h-1zM1186 1412h2v1h-2zM1039 1413h2v1h-2zM1055 1413h8v1h-8zM1168 1413h8v1h-8zM1187 1413h3v1h-3zM1040 1414h2v1h-2zM1055 1414h5v1h-5zM1061 1414h2v1h-2zM1168 1414h3v1h-3zM1172 1414h4v1h-4zM1189 1414h2v1h-2zM1041 1415h2v1h-2zM1055 1415h8v1h-8zM1168 1415h8v1h-8zM1190 1415h2v1h-2zM1042 1416h2v1h-2zM1191 1416h2v1h-2zM1043 1417h3v1h-3zM1192 1417h2v1h-2zM1045 1418h3v1h-3zM1055 1416h1v3h-1zM1058 1416h2v3h-2zM1061 1416h1v3h-1zM1169 1416h2v3h-2zM1172 1416h1v3h-1zM1193 1418h1v1h-1zM1047 1419h5v1h-5zM1055 1419h5v1h-5zM1061 1419h2v1h-2zM1064 1410h1v10h-1zM1166 1410h1v10h-1zM1168 1419h3v1h-3zM1172 1419h2v1h-2zM1175 1416h1v4h-1zM1193 1419h2v1h-2zM1051 1420h129v1h-129zM1194 1420h1v1h-1zM1056 1421h8v1h-8zM1167 1421h8v1h-8zM1179 1421h3v1h-3zM1194 1421h2v1h-2zM1056 1422h7v1h-7zM1168 1422h7v1h-7zM1181 1422h2v1h-2zM1056 1423h4v1h-4zM1061 1423h2v1h-2zM1168 1423h3v1h-3zM1172 1423h3v1h-3zM1182 1423h2v1h-2zM1195 1422h1v2h-1zM1056 1424h7v1h-7zM1168 1424h7v1h-7zM1183 1424h2v1h-2zM1195 1424h2v1h-2zM1058 1425h4v1h-4zM1169 1425h4v1h-4zM1184 1425h1v1h-1zM1184 1426h2v1h-2zM1196 1425h1v4h-1zM1185 1427h1v3h-1zM1196 1429h2v1h-2zM1185 1430h13v1h-13zM1181 1431h5v1h-5zM1181 1432h6v1h-6zM1190 1431h3v2h-3zM1196 1431h6v2h-6zM1180 1433h22v1h-22zM1180 1434h2v1h-2zM1183 1434h3v1h-3zM1190 1434h1v1h-1zM1192 1434h1v1h-1zM1196 1434h4v1h-4zM1201 1434h1v1h-1zM1180 1435h22v2h-22zM1181 1437h6v1h-6zM1190 1437h3v1h-3zM1196 1437h6v1h-6zM1184 1438h2v1h-2zM1196 1438h2v1h-2zM1185 1439h13v1h-13zM797 1321h1v249h-1zM809 1321h1v249h-1zM797 1570h13v2h-13zM797 1572h2v1h-2zM809 1572h1v1h-1zM793 1573h22v1h-22zM793 1574h4v1h-4zM798 1574h1v1h-1zM803 1574h2v1h-2zM809 1574h2v1h-2zM812 1574h3v1h-3zM793 1575h22v2h-22zM802 1577h4v1h-4zM793 1577h6v2h-6zM802 1578h3v1h-3zM808 1577h6v2h-6zM794 1579h17v1h-17zM812 1579h2v1h-2zM797 1580h13v1h-13zM809 1581h1v2h-1zM809 1583h2v1h-2zM810 1584h1v1h-1zM798 1581h1v5h-1zM810 1585h2v1h-2zM821 1585h6v1h-6zM898 1585h6v1h-6zM1185 1440h1v146h-1zM1197 1440h1v146h-1zM798 1586h2v1h-2zM811 1586h1v1h-1zM1185 1586h13v1h-13zM799 1587h1v1h-1zM811 1587h3v1h-3zM1185 1587h1v1h-1zM1196 1587h2v1h-2zM799 1588h2v1h-2zM813 1588h2v1h-2zM820 1586h7v3h-7zM898 1586h7v3h-7zM1181 1588h5v1h-5zM1190 1588h3v1h-3zM1196 1588h6v1h-6zM814 1589h4v1h-4zM819 1589h4v1h-4zM824 1589h75v1h-75zM900 1589h1v1h-1zM902 1589h10v1h-10zM1180 1589h22v1h-22zM800 1589h1v2h-1zM817 1590h12v1h-12zM895 1590h11v1h-11zM1180 1590h2v1h-2zM1183 1590h3v1h-3zM1190 1590h1v1h-1zM1192 1590h1v1h-1zM1196 1590h4v1h-4zM1201 1590h1v1h-1zM800 1591h2v1h-2zM801 1592h2v1h-2zM1180 1591h22v2h-22zM802 1593h2v1h-2zM822 1591h1v3h-1zM824 1591h2v3h-2zM902 1591h1v3h-1zM904 1591h2v3h-2zM803 1594h2v1h-2zM819 1591h1v4h-1zM821 1594h2v1h-2zM824 1594h3v1h-3zM898 1591h1v4h-1zM900 1591h1v4h-1zM902 1594h4v1h-4zM1181 1593h6v2h-6zM1190 1593h3v2h-3zM1196 1593h6v2h-6zM804 1595h1v1h-1zM1185 1595h13v1h-13zM804 1596h3v1h-3zM819 1595h8v2h-8zM898 1595h8v2h-8zM806 1597h2v1h-2zM821 1597h2v1h-2zM824 1597h3v1h-3zM902 1597h4v1h-4zM807 1598h3v1h-3zM809 1599h3v1h-3zM824 1598h2v2h-2zM811 1600h4v1h-4zM819 1597h1v4h-1zM822 1598h1v3h-1zM824 1600h3v1h-3zM828 1591h1v10h-1zM895 1591h2v10h-2zM898 1597h1v4h-1zM900 1597h1v4h-1zM902 1598h1v3h-1zM904 1598h2v3h-2zM911 1590h1v11h-1zM1185 1596h1v5h-1zM1197 1596h1v5h-1zM814 1601h98v1h-98zM1185 1601h13v1h-13zM819 1602h9v1h-9zM896 1602h9v1h-9zM821 1603h2v1h-2zM824 1603h3v1h-3zM898 1603h1v1h-1zM900 1603h1v1h-1zM902 1603h2v1h-2zM820 1604h7v2h-7zM898 1604h7v2h-7zM822 1606h5v1h-5zM898 1606h5v1h-5zM0 0h1v1652h-1zM2338 0h1v1652h-1zM0 1652h2339v1h-2339z"/></svg>