<svg width="105" height="105" viewBox="0 0 105 105" fill="none" xmlns="http://www.w3.org/2000/svg">
<rect width="105" height="105" rx="52.5" fill="#EF6825"/>
<path d="M54.265 27.8906C56.1261 27.8906 57.8112 28.9242 58.7417 30.45C59.1944 31.1883 59.4962 32.0988 59.4207 33.0586C59.3704 33.7969 59.5968 34.5352 59.9992 35.2242C61.2818 37.316 64.1237 38.1035 66.3369 36.9223C68.8267 35.4949 71.9705 36.3562 73.404 38.7926L75.089 41.6965C76.5477 44.1328 75.7429 47.2582 73.2279 48.6609C71.0902 49.916 70.3357 52.6969 71.6184 54.8133C72.0208 55.4777 72.4735 56.0438 73.1776 56.3883C74.0579 56.8559 74.7369 57.5941 75.2148 58.3324C76.1453 59.8582 76.0699 61.7285 75.1645 63.3773L73.404 66.3305C72.4735 67.9055 70.7381 68.8898 68.9525 68.8898C68.0723 68.8898 67.0914 68.6438 66.2866 68.1516C65.6327 67.7332 64.8782 67.5855 64.0734 67.5855C61.5836 67.5855 59.4962 69.6281 59.4207 72.0645C59.4207 74.8945 57.107 77.1094 54.2147 77.1094H50.7944C47.877 77.1094 45.5632 74.8945 45.5632 72.0645C45.5129 69.6281 43.4255 67.5855 40.9357 67.5855C40.1057 67.5855 39.3513 67.7332 38.7225 68.1516C37.9177 68.6438 36.9117 68.8898 36.0566 68.8898C34.2459 68.8898 32.5105 67.9055 31.58 66.3305L29.8447 63.3773C28.9141 61.7777 28.8638 59.8582 29.7944 58.3324C30.1968 57.5941 30.9512 56.8559 31.8063 56.3883C32.5105 56.0438 32.9632 55.4777 33.3908 54.8133C34.6483 52.6969 33.8938 49.916 31.756 48.6609C29.2662 47.2582 28.4614 44.1328 29.895 41.6965L31.58 38.7926C33.0387 36.3562 36.1572 35.4949 38.6722 36.9223C40.8602 38.1035 43.7022 37.316 44.9848 35.2242C45.3872 34.5352 45.6135 33.7969 45.5632 33.0586C45.5129 32.0988 45.7896 31.1883 46.2674 30.45C47.198 28.9242 48.883 27.9398 50.7189 27.8906H54.265ZM52.5297 45.5602C48.5812 45.5602 45.3872 48.6609 45.3872 52.5246C45.3872 56.3883 48.5812 59.4645 52.5297 59.4645C56.4782 59.4645 59.5968 56.3883 59.5968 52.5246C59.5968 48.6609 56.4782 45.5602 52.5297 45.5602Z" fill="white"/>
</svg>
