<svg preserveAspectRatio="xMidYMid meet" overflow="visible" style="display: block;" viewBox="0 0 105 105" fill="none" xmlns="http://www.w3.org/2000/svg">
<g id="Shield done - Iconly Pro">
<rect width="105" height="105" rx="52.5" fill="var(--fill-0, #EF6825)"/>
<path id="Vector" fill-rule="evenodd" clip-rule="evenodd" d="M61.2999 48.3902L52.1403 57.5449C51.7958 57.8895 51.3257 58.0839 50.836 58.0839C50.3438 58.0839 49.8738 57.8895 49.5293 57.5425L45.0872 53.0882C44.3662 52.3671 44.3686 51.2006 45.0897 50.4796C45.8132 49.761 46.9821 49.761 47.7008 50.4845L50.8385 53.6271L58.6889 45.7792C59.4099 45.0581 60.5789 45.0581 61.2999 45.7792C62.021 46.5002 62.021 47.6692 61.2999 48.3902ZM70.6047 35.6106C68.8747 33.8732 55.0245 29.1211 52.4996 29.1211C49.9747 29.1211 36.1269 33.8732 34.3944 35.6106C33.0163 36.9936 33.036 38.0617 33.1443 43.9704C33.1886 46.3673 33.2476 49.6305 33.2476 54.1488C33.2476 69.9161 51.9533 75.7682 52.1428 75.8248C52.2584 75.8617 52.379 75.8789 52.4996 75.8789C52.6202 75.8789 52.7383 75.8617 52.8564 75.8248C53.0459 75.7682 71.754 69.9161 71.754 54.1488C71.754 49.6429 71.813 46.3846 71.8573 43.9901C71.9632 38.0666 71.9804 36.9961 70.6047 35.6106Z" fill="var(--fill-0, white)"/>
</g>
</svg>
