<svg preserveAspectRatio="xMidYMid meet" overflow="visible" style="display: block;" viewBox="0 0 105 105" fill="none" xmlns="http://www.w3.org/2000/svg">
<g id="Setting">
<rect width="105" height="105" rx="52.5" fill="var(--fill-0, #EF6825)"/>
<g transform="translate(29,28) scale(1)">
<path d="M25.144 0C27.005 0 28.6901 1.03359 29.6206 2.55937C30.0733 3.29766 30.3751 4.2082 30.2996 5.16797C30.2494 5.90625 30.4757 6.64453 30.8781 7.33359C32.1607 9.42539 35.0026 10.2129 37.2158 9.03164C39.7056 7.6043 42.8494 8.46562 44.2829 10.902L45.9679 13.8059C47.4266 16.2422 46.6218 19.3676 44.1069 20.7703C41.9691 22.0254 41.2146 24.8062 42.4973 26.9227C42.8997 27.5871 43.3524 28.1531 44.0566 28.4977C44.9368 28.9652 45.6158 29.7035 46.0937 30.4418C47.0242 31.9676 46.9488 33.8379 46.0434 35.4867L44.2829 38.4398C43.3524 40.0148 41.617 40.9992 39.8314 40.9992C38.9512 40.9992 37.9703 40.7531 37.1655 40.2609C36.5116 39.8426 35.7571 39.6949 34.9524 39.6949C32.4625 39.6949 30.3751 41.7375 30.2996 44.1738C30.2996 47.0039 27.9859 49.2188 25.0937 49.2188H21.6733C18.7559 49.2188 16.4421 47.0039 16.4421 44.1738C16.3918 41.7375 14.3044 39.6949 11.8146 39.6949C10.9847 39.6949 10.2302 39.8426 9.60142 40.2609C8.79663 40.7531 7.79064 40.9992 6.93555 40.9992C5.12477 40.9992 3.38944 40.0148 2.4589 38.4398L0.723564 35.4867C-0.206976 33.8871 -0.257275 31.9676 0.673265 30.4418C1.07566 29.7035 1.83015 28.9652 2.68524 28.4977C3.38944 28.1531 3.84213 27.5871 4.26968 26.9227C5.52716 24.8062 4.77267 22.0254 2.63494 20.7703C0.145121 19.3676 -0.659671 16.2422 0.773864 13.8059L2.4589 10.902C3.91758 8.46562 7.03615 7.6043 9.55112 9.03164C11.7391 10.2129 14.5811 9.42539 15.8637 7.33359C16.2661 6.64453 16.4924 5.90625 16.4421 5.16797C16.3918 4.2082 16.6685 3.29766 17.1463 2.55937C18.0769 1.03359 19.7619 0.0492187 21.5978 0H25.144ZM23.4086 17.6695C19.4601 17.6695 16.2661 20.7703 16.2661 24.634C16.2661 28.4977 19.4601 31.5738 23.4086 31.5738C27.3571 31.5738 30.4757 28.4977 30.4757 24.634C30.4757 20.7703 27.3571 17.6695 23.4086 17.6695Z" fill="var(--fill-0, white)"/>
</g>
</g>
</svg>
