<svg preserveAspectRatio="xMidYMid meet" overflow="visible" style="display: block;" viewBox="0 0 105 105" fill="none" xmlns="http://www.w3.org/2000/svg">
<g id="Flash - Iconly Pro">
<rect width="105" height="105" rx="52.5" fill="var(--fill-0, #EF6825)"/>
<path id="Vector" fill-rule="evenodd" clip-rule="evenodd" d="M71.9783 47.836C71.3458 46.6006 70.0908 45.8328 68.7028 45.8328H56.4522V32.8144C56.4522 31.1828 55.4531 29.8022 53.9076 29.3002C52.3548 28.7957 50.7527 29.3248 49.7979 30.639L33.3195 53.3288C32.5024 54.4584 32.3892 55.9276 33.0217 57.1679C33.6542 58.4008 34.9092 59.1686 36.2972 59.1686H48.5452V72.1895C48.5452 73.8186 49.5444 75.1967 51.0899 75.6988C51.4787 75.8267 51.8724 75.8883 52.2588 75.8883C53.4056 75.8883 54.4909 75.3468 55.2045 74.3625L71.6805 51.6726C72.4976 50.5431 72.6108 49.0739 71.9783 47.836Z" fill="var(--fill-0, white)"/>
</g>
</svg>
