<svg preserveAspectRatio="xMidYMid meet" overflow="visible" style="display: block;" viewBox="0 0 105 105" fill="none" xmlns="http://www.w3.org/2000/svg">
<g id="Water drop - Iconly Pro">
<rect width="105" height="105" rx="52.5" fill="var(--fill-0, #EF6825)"/>
<path id="Subtract" d="M51.6686 28.7031C52.2771 28.396 53.0165 28.4476 53.5817 28.8564H53.5846L53.5895 28.8613C53.5927 28.8636 53.5979 28.8672 53.6032 28.871C53.6139 28.8789 53.6285 28.8914 53.6471 28.9052C53.685 28.9332 53.7395 28.9734 53.8083 29.0253C53.9462 29.1294 54.1449 29.2799 54.3942 29.4765C54.8935 29.8703 55.6004 30.4475 56.444 31.1855C58.1286 32.6593 60.3738 34.7938 62.6159 37.4345C67.0435 42.6496 71.6925 50.1178 71.57 58.5468L71.5583 59.4912C71.3567 64.1823 68.9581 68.3492 65.61 71.3486C62.0555 74.5329 57.2865 76.5383 52.5202 76.4921L52.5221 76.4941C52.5141 76.4942 52.5057 76.492 52.4977 76.4921C52.4915 76.4922 52.4853 76.4941 52.4792 76.4941V76.4921C47.7133 76.5378 42.9442 74.5324 39.3903 71.3486C35.8196 68.1494 33.3272 63.6215 33.4303 58.5468C33.3079 50.1183 37.9552 42.6495 42.3825 37.4345C44.6246 34.7937 46.8717 32.6593 48.5563 31.1855C49.4 30.4474 50.1078 29.8703 50.6071 29.4765C50.8564 29.2799 51.0552 29.1293 51.193 29.0253C51.2619 28.9734 51.3163 28.9332 51.3542 28.9052C51.3728 28.8914 51.3864 28.8789 51.3971 28.871C51.4025 28.8671 51.4085 28.8637 51.4118 28.8613L51.4167 28.8564L51.6686 28.7031ZM44.4137 55.7363C43.3953 55.7174 42.5548 56.5275 42.5348 57.5458V57.5556C42.4248 63.2045 47.7452 66.9553 52.5299 66.8945C53.5488 66.8812 54.3639 66.0442 54.3512 65.0253C54.3383 64.0061 53.5012 63.1902 52.4821 63.2031C49.2178 63.2443 46.1644 60.6673 46.2233 57.6279V57.6181C46.2428 56.5989 45.4329 55.7557 44.4137 55.7363Z" fill="var(--fill-0, white)"/>
</g>
</svg>
