<svg preserveAspectRatio="xMidYMid meet" overflow="visible" style="display: block;" viewBox="0 0 172.06 35.9997" fill="none" xmlns="http://www.w3.org/2000/svg">
<path id="Union" d="M0.82599 22.2188C1.87224 22.1875 3.00821 22.2732 4.08478 22.2657C4.17595 24.5917 4.04818 27.0841 4.1004 29.419C4.11927 30.264 4.02014 32.3413 4.25079 33.0645C4.62851 33.305 6.79594 33.2533 7.31134 33.2149C8.35766 33.1362 7.92125 29.5592 7.85724 28.8624C6.08415 27.6665 6.23288 26.7309 6.23029 24.7774C7.09608 24.7053 8.64013 24.7231 9.55646 24.7003L9.65314 26.4649L10.4276 27.0333C10.8138 27.3738 11.2435 28.087 11.2606 28.6114C11.3129 30.2381 11.6095 33.1537 10.7244 34.5274C10.1857 35.2598 9.1121 35.763 8.2381 35.8565C5.95891 36.1007 0.923654 36.429 0.754701 33.1212C0.685727 31.7706 0.454136 22.7325 0.82599 22.2188ZM28.3553 22.2823C28.4555 23.0655 28.4125 24.8607 28.4227 25.7462C29.4815 25.7424 30.5984 25.7301 31.6678 25.7471C36.0742 25.8177 35.6609 29.3051 35.5662 32.5421C35.5346 33.6207 35.1696 34.424 34.3524 35.1329C33.2335 36.163 30.3586 35.9937 28.9256 35.9532C24.2721 35.8216 24.9314 32.2669 24.9451 28.9473C24.9544 26.6803 24.8511 24.4824 24.9471 22.2696L28.3553 22.2823ZM87.1014 7.21833e-05C88.0883 0.00748569 90.4197 0.0341426 91.3748 0.157299C94.3589 0.611376 97.4597 1.60178 99.6502 3.75007C102.107 6.16061 101.959 8.73574 101.966 11.9122L101.978 16.918C101.998 23.1577 102.051 29.522 101.984 35.7598C100.544 35.9912 98.8302 35.9269 97.3524 35.9317L90.6287 35.9483C88.5607 36.0034 86.281 35.9576 84.1932 35.9639C80.9776 35.9911 77.7615 35.9906 74.5457 35.962L74.5418 35.9102C74.4366 34.2801 74.5111 31.7989 74.5037 30.1026L74.4852 17.6876L74.4461 10.877C74.4441 9.84325 74.3766 8.34538 74.5311 7.36824C75.2514 2.81118 81.792 0.305102 85.6512 0.0655019C86.1333 0.0201413 86.6175 -0.00141747 87.1014 7.21833e-05ZM15.4656 22.3175C16.2741 22.2878 17.4101 22.3151 18.2068 22.3555C18.2737 22.8987 18.2772 23.5962 18.3406 24.1983C20.3864 24.1548 22.8449 24.5841 23.0565 27.2325C23.2032 29.0694 23.1166 31.1675 23.0008 32.9952C22.9439 33.8931 22.1238 35.0275 21.3279 35.4005C20.112 36.0815 18.812 35.9116 17.4901 35.9639C15.3612 36.0483 12.7616 35.6375 12.493 33.0059C12.4472 31.3021 12.4718 29.5351 12.4744 27.8262C13.6171 27.709 14.6993 27.764 15.8445 27.7725C15.8653 28.7517 15.6441 32.5941 16.201 33.1329C16.7084 33.2892 19.156 33.3562 19.5223 32.96C19.8047 32.1772 19.819 27.9112 19.577 27.1202C19.0472 26.6871 18.0863 26.9972 17.452 26.8721C15.3509 26.4577 14.6285 24.3645 14.8348 22.5108C15.0533 22.3189 15.1328 22.3652 15.4656 22.3175ZM64.993 22.2677C67.0618 22.1634 69.9106 22.3487 70.2957 24.9483C70.5143 26.4252 70.3658 28.258 70.3533 29.7813C70.3369 31.7956 70.3388 33.8044 70.3328 35.8194C69.1681 35.7842 68.0029 35.7685 66.8377 35.7725C66.7298 32.41 66.9976 28.7903 66.9324 25.3682C66.9284 25.2278 66.8894 25.194 66.8055 25.087C66.2165 24.835 64.2417 24.9679 63.5242 24.9913C63.4194 26.3017 63.4746 28.053 63.4891 29.377C63.5231 31.5207 63.5313 33.6648 63.5135 35.8087C62.6212 35.7243 61.1505 35.7693 60.1815 35.7628C60.1888 33.611 60.1761 31.4592 60.1443 29.3077C60.1251 27.9549 60.058 26.6086 60.1639 25.2589C60.3315 23.1236 61.4902 22.6767 63.3367 22.2999C63.8584 22.245 64.4683 22.2859 64.993 22.2677ZM50.6551 22.9151C52.439 21.9993 56.1966 21.8396 57.6951 23.42C58.4555 24.2219 58.5413 25.6288 58.4608 26.6944C58.3318 28.402 58.3646 30.1302 58.2576 31.8438C57.415 31.9224 55.6469 31.8752 54.7361 31.877C54.7091 30.5616 55.2092 25.8962 54.8846 25.1085C54.4874 24.7862 53.0129 24.8129 52.6072 25.1085C52.2904 25.6854 52.4313 28.767 52.4461 29.5596C51.4651 29.6149 50.0755 29.5759 49.032 29.6016C49.038 28.8088 49.1498 25.9095 48.8836 25.1026C48.8027 24.8573 47.2566 24.8128 46.8748 25.0714C46.6036 25.7242 46.7198 28.6012 46.7137 29.5382C46.022 29.555 44.0101 29.6969 43.3524 29.4346C43.3071 29.4166 43.2918 29.2017 43.2801 29.1221C43.2801 27.8348 43.3248 26.2898 43.2322 25.0323C42.8426 24.9459 42.4697 24.9095 42.076 24.8966C40.7216 24.852 40.5228 24.9622 40.5447 26.3302C40.5624 27.4312 40.6109 28.4836 40.7137 29.5792C42.4843 31.6196 42.3903 31.5689 44.7576 32.9718L51.1492 32.9561C51.8934 32.9551 53.9713 32.9127 54.5877 33.0479C54.8464 33.4858 54.7462 35.1432 54.7361 35.7335C53.3205 35.8383 50.7065 35.7535 49.2195 35.752L38.5975 35.755C38.5749 35.1906 38.5149 33.498 38.6551 33.0567C38.9177 32.9278 39.3757 32.948 39.6844 32.9405C38.3339 31.9406 37.273 30.8024 37.3016 29.0098C37.329 27.2873 36.9399 25.1771 37.7576 23.588C38.1622 22.802 39.614 22.4629 40.4002 22.2979C41.302 22.2667 43.2172 22.1588 43.9559 22.4952C45.5601 23.2258 45.0445 22.6348 46.4959 22.3585C47.6942 22.1304 49.5943 22.1909 50.6551 22.9151ZM107.865 23.5362C108.922 23.1577 110.744 23.2948 111.854 23.2969C113.883 23.3116 115.911 23.3047 117.939 23.2755C118.035 23.2588 118.124 23.305 118.22 23.3399C118.445 23.7347 118.322 25.2782 118.3 25.8135C116.58 25.7846 113.607 25.6565 111.987 25.8399C111.899 25.9169 111.61 26.177 111.524 26.2667C110.697 27.1279 111.126 29.3111 111.011 30.5089C111.021 31.0866 111.006 31.9606 111.464 32.3682C112.162 32.9893 113.053 32.9196 113.925 32.9171C115.369 32.913 116.819 32.9018 118.266 32.8907C118.36 33.5591 118.307 34.8968 118.277 35.5909C117.42 35.4478 115.401 35.4983 114.429 35.501C112.632 35.4925 110.805 35.5738 109.021 35.4952C107.268 35.3854 106.463 34.0543 106.516 32.418C106.549 30.0673 106.408 27.6452 106.603 25.3087C106.653 24.7282 107.324 23.73 107.865 23.5362ZM166.613 23.3077C168.852 23.2777 171.565 22.6344 171.927 25.5948C172.1 27.0244 172.044 28.2918 172.038 29.6973C172.023 31.6408 172.031 33.5851 172.06 35.5284C170.584 35.4952 169.163 35.5461 167.7 35.5264C167.516 35.3439 167.562 35.2788 167.523 34.9796L167.528 31.8487C166.066 31.9054 164.643 31.8732 163.182 31.8487C163.179 33.0512 163.2 34.3859 163.127 35.5733C162.2 35.434 159.773 35.5147 158.72 35.5284C158.703 32.9648 158.895 30.3457 158.794 27.7579C158.729 26.0975 158.692 24.1013 160.444 23.335C162.252 23.1201 164.767 23.3324 166.613 23.3077ZM121.466 23.2589C124.07 23.1511 126.794 23.3042 129.406 23.2432C132.101 23.1805 132.488 25.195 132.438 27.421C132.377 30.0902 132.523 32.8475 132.428 35.5255C131.183 35.5094 129.06 35.4419 127.888 35.5616L127.903 34.2364C127.905 33.4312 127.899 32.6255 127.886 31.8204C126.953 31.8894 124.64 31.7959 123.597 31.7852C123.553 32.9861 123.597 34.3344 123.575 35.5694C122.021 35.5012 120.654 35.5125 119.099 35.5235C119.164 32.3285 118.979 28.9825 119.179 25.7872C119.27 24.3241 120 23.4993 121.466 23.2589ZM133.197 23.2462C134.225 23.1705 136.302 23.2391 137.403 23.2354C137.585 26.2849 137.245 29.9379 137.477 32.9395C139.639 32.8404 142.25 32.9259 144.466 32.9093C144.57 33.7167 144.573 34.7544 144.51 35.5665C141.632 35.3131 137.545 35.5996 134.5 35.4805C133.908 35.1035 133.352 34.6226 133.255 33.879C133.065 32.4259 133.131 30.885 133.143 29.418C133.142 27.3607 133.16 25.3031 133.197 23.2462ZM145.54 23.2706C148.984 23.2615 153.429 23.1753 156.804 23.338C157.07 23.5069 157.186 23.6334 157.423 23.8194C158.07 24.3867 158.118 25.8421 158.115 26.6173C158.109 28.0486 158.146 29.4909 158.119 30.9024C158.093 32.3063 158.319 33.996 157.283 35.0499C157.068 35.2004 156.664 35.4205 156.408 35.4346C152.753 35.635 148.992 35.4265 145.335 35.5352L145.303 27.1221C145.303 26.254 145.263 24.1752 145.356 23.3653L145.54 23.2706ZM75.5242 35.1329L87.3436 35.085C87.3151 34.6484 87.2657 34.1144 87.2752 33.6846C83.5774 32.7441 79.2708 32.1069 75.4901 31.3995L75.5242 35.1329ZM32.0926 28.6671C32.08 28.2713 28.8239 28.4174 28.4344 28.4219C28.4283 29.3636 28.0817 32.6259 28.9578 33.129C29.4938 33.4365 31.4639 33.2486 32.0809 33.0469C32.2914 32.2973 32.1202 29.5344 32.0926 28.6671ZM153.604 27.2559C152.412 25.757 151.472 26.2507 149.717 26.253L149.734 32.7481C150.762 32.7555 152.443 32.9805 153.102 32.3321L153.126 32.3077C153.219 32.2055 153.51 31.8754 153.528 31.7647C153.728 30.4788 153.624 28.5465 153.604 27.2559ZM75.4637 26.2315C75.4689 27.1329 75.4419 28.4606 75.5076 29.3292C78.0652 29.7478 80.7339 30.5192 83.2654 31.0821C84.2501 31.3011 86.7028 31.9784 87.6424 31.9385C87.5251 31.6076 87.4386 31.6134 87.0721 31.4395C83.2379 29.6264 79.3675 27.8899 75.4637 26.2315ZM75.4422 18.9844C75.4483 20.4912 75.4201 22.139 75.4666 23.6339C78.7928 25.0917 82.0056 26.7342 85.3387 28.1719C85.8819 28.4062 88.1627 29.5557 88.5604 29.6348L88.7635 29.4884C88.9574 29.2372 89.0783 29.1796 89.074 28.921C88.094 28.0168 86.7358 27.1714 85.6385 26.3858L80.6151 22.7227C79.1316 21.6586 76.9296 19.8482 75.4422 18.9844ZM125.992 25.7774C125.481 25.7921 124.901 25.7947 124.396 25.8253C123.234 26.9626 123.549 28.0063 123.603 29.5343L125.558 29.505C126.24 29.5013 127.273 29.4615 127.926 29.4971C127.916 28.7158 127.937 27.4737 127.873 26.7325C127.634 26.4122 127.435 26.135 127.156 25.8438L125.992 25.7774ZM164.996 25.7755L164.041 25.8116C162.866 27.1318 163.14 27.6847 163.196 29.4913C164.087 29.4728 165.004 29.4422 165.892 29.4493L167.551 29.4405C167.532 28.6296 167.542 27.4185 167.484 26.6397L166.768 25.836C166.104 25.7731 165.664 25.7661 164.996 25.7755ZM75.4695 7.7237C75.3892 9.82366 75.268 14.2543 75.4432 16.3985L86.618 24.6915C87.4134 25.2721 90.1459 27.6276 90.9207 27.6641C90.9435 27.2772 89.0711 25.0138 88.7029 24.5391L84.0184 18.5274C83.0489 17.2699 75.8263 7.83802 75.4695 7.7237ZM98.1805 19.9278C98.0701 21.8507 97.8173 24.4554 97.8026 26.3194C98.6005 26.5171 99.3804 26.7842 100.133 27.1173C100.379 27.246 100.759 27.4299 100.983 27.5733C101.018 21.1178 100.908 14.5568 100.849 8.09773C100.84 7.13208 99.942 5.1426 99.1199 4.63288L98.1805 19.9278ZM84.367 1.07624C81.7304 1.49773 78.1525 3.05994 76.5418 5.30183C76.4867 5.37798 76.4353 5.45756 76.3885 5.53913C77.0217 6.43477 77.8066 7.21859 78.4197 8.05183C79.4957 9.51433 80.6173 10.8578 81.7313 12.2706L87.6502 19.7745C88.3239 20.6325 88.9305 21.5107 89.6258 22.3604C90.3358 23.2273 91.0355 24.0891 91.7274 24.9708C92.1535 25.5129 92.7449 26.4596 93.2029 26.9044C92.7077 24.7872 91.7542 22.1518 91.033 20.0919L88.8026 13.6368C87.342 9.49199 86.0948 5.36625 84.5496 1.16218C84.4945 1.13019 84.4246 1.07933 84.367 1.07624ZM86.9412 0.787182C88.4001 5.75967 90.399 10.8829 92.0477 15.8214C92.5197 17.2349 95.0035 25.3219 95.5672 26.0968L95.7166 26.1622C95.8872 25.943 95.8466 25.8852 95.8846 25.5831C96.0865 17.9223 96.5303 10.2721 96.6873 2.59285C95.7315 2.2431 94.8119 1.84175 93.8475 1.53035C91.7321 0.847514 89.1645 0.732772 86.9412 0.787182ZM8.51544 7.46199C9.93609 6.55325 11.3164 6.71941 13.0574 6.81745C14.0213 6.87986 14.9223 7.3203 15.5633 8.04304C16.6811 9.31653 16.3549 12.1379 16.3397 13.8204C16.3223 15.7206 16.3405 17.8674 16.2088 19.7559C15.4999 19.7676 13.4029 19.9437 12.8963 19.6485C12.5966 19.4645 12.9978 10.6617 12.7059 9.43464C12.3508 9.43067 11.9955 9.4303 11.6404 9.43367C11.4283 9.43651 10.2937 9.47073 10.2283 9.76374C9.75133 11.9033 10.906 17.3624 9.37091 18.9024C7.82038 20.4576 2.42277 20.4524 0.850404 18.8897C0.177955 18.2214 -0.0104212 16.6238 0.0359511 15.6739C0.261368 13.1937 -0.590477 9.89189 0.95392 7.77351C1.68243 6.82207 3.59454 6.7877 4.6463 6.78718C6.02923 6.79857 6.99044 6.54389 8.17853 7.35163C8.21374 7.38548 8.48224 7.48158 8.51544 7.46199ZM19.159 6.69148C20.2281 6.72658 21.3679 6.70404 22.4442 6.69929C23.185 8.28473 23.9063 7.71082 24.202 9.91706C26.1689 10.4704 27.2538 10.9281 27.2967 13.2657C27.3638 16.917 27.9138 19.916 23.1512 20.001C16.5597 20.0021 16.3943 18.7644 16.9891 12.1553C17.1697 10.149 19.6755 10.3721 20.7235 9.76667C20.5951 9.11135 19.2307 9.01091 19.0145 8.05378C18.9179 7.62613 18.5238 6.97353 19.159 6.69148ZM122.417 7.07136C124.777 7.1322 127.248 7.00003 129.596 7.0821C132.11 7.21346 132.543 9.52347 132.468 11.5968C132.372 14.2352 132.644 17.249 132.417 19.8731C131.345 19.9969 129.076 19.9421 127.919 19.9444L127.904 18.5928L127.893 16.0587C126.295 16.1782 125.217 16.137 123.629 16.0655C123.567 17.2158 123.603 18.7277 123.596 19.9083C122.393 19.9753 120.199 19.9807 119.032 19.8917C118.92 18.1792 119.051 15.8484 119.009 14.0704C118.989 13.2666 118.958 10.9328 119.032 10.2384C119.101 9.61846 119.262 9.01214 119.51 8.43953C119.85 7.66231 120.446 7.38684 121.177 7.10554C121.592 7.07188 122 7.06515 122.417 7.07136ZM153.459 7.07917C155.182 7.25979 158.812 6.53138 160.018 7.75886C161.436 9.20201 161.128 11.8799 161.125 13.7364L161.114 19.9161C159.945 20.0053 157.77 19.9285 156.552 19.9161L156.537 18.5928C156.543 17.7665 156.521 16.8869 156.513 16.0567C155.164 16.199 153.604 16.108 152.237 16.0635L152.225 19.8897C151.225 19.982 148.621 19.9765 147.662 19.8917C147.611 18.7198 147.641 17.3951 147.664 16.1573C147.707 13.7895 147.31 10.9884 148.019 8.70906C148.286 7.85337 148.973 7.44728 149.726 7.11433C150.631 7.04417 152.554 6.98433 153.459 7.07917ZM118.346 7.09382C118.362 8.02586 118.395 8.98883 118.337 9.91706C116.516 9.98318 113.616 9.7031 111.951 10.0098C111.857 10.0966 111.764 10.1853 111.674 10.2755C110.745 11.2032 111.107 14.656 111.109 16.0577C111.314 16.4337 111.604 16.9378 112.055 17.0382C113.31 17.3177 114.81 17.1766 116.111 17.1573L118.326 17.1632C118.352 18.0651 118.353 18.9681 118.33 19.8702L112.077 19.8673C109.745 19.8706 106.678 20.433 106.511 17.0977C106.418 15.2663 106.484 13.4376 106.471 11.6055C106.459 9.54175 106.391 7.30061 109.07 7.12995C112.077 7.13246 115.361 7.19902 118.346 7.09382ZM135.903 7.11628C139.482 7.00808 143.349 7.15799 146.974 7.10456C146.989 7.75432 147.067 9.15499 146.852 9.7032C146.453 10.0812 140.198 9.71385 139.168 9.8487C138.132 9.98455 138.264 10.7734 138.37 11.7471C138.525 11.9497 138.616 12.0593 138.873 12.1085C141.443 12.5984 146.115 10.8184 146.811 14.5548C147.185 16.5608 147.104 19.2675 144.581 19.8448C141.074 19.9494 137.145 19.8629 133.607 19.879C133.55 19.083 133.596 18.0905 133.613 17.2784C136.012 17.3546 139.788 17.3659 142.134 17.2413C142.096 16.4878 142.11 15.6831 142.111 14.9249C140.28 14.6819 136.057 15.3657 134.711 14.4141C134.089 13.9738 133.738 13.26 133.622 12.5196C133.401 11.1165 133.412 9.22557 134.282 8.03816C134.719 7.44211 135.189 7.22208 135.903 7.11628ZM32.3104 6.79109C38.1745 6.44811 38.0514 8.3268 38.0125 13.1827C38.0095 15.3796 37.98 17.5772 37.9236 19.7735C36.851 19.7685 35.7682 19.7524 34.6971 19.7989C34.5664 16.8705 34.6689 13.0226 34.6883 10.0479C34.6754 9.73434 34.7166 9.82742 34.5682 9.59578C33.8857 9.29335 32.9593 9.49598 32.2313 9.4864C31.455 9.47639 31.3191 9.6701 31.3211 10.419C31.325 11.7902 31.3889 13.162 31.4266 14.5333C31.4619 16.2841 31.4737 18.036 31.4608 19.7872C30.3307 19.7685 29.2002 19.7645 28.0701 19.7764C27.9897 17.8464 28.0012 15.8845 27.951 13.9464C27.9873 12.6146 27.799 11.2264 27.9442 9.90046C28.1692 7.84695 28.861 7.48221 30.5809 6.84578C31.1432 6.76542 31.7616 6.82316 32.3104 6.79109ZM46.3475 7.38093C48.1333 6.47686 50.2034 6.52726 51.9647 7.44245C53.3046 6.73767 53.6173 6.8138 55.0818 6.78523C56.9747 6.74821 58.6905 6.91268 59.3611 8.99617C59.4882 9.39776 59.56 9.81539 59.5731 10.2364C59.5934 10.8159 59.3412 15.681 59.1668 16.0196C58.7215 16.2504 56.4716 16.1491 55.8563 16.1417C55.9595 15.2917 56.2805 10.1311 56.0125 9.60749C55.4835 9.27117 54.3737 9.45608 53.7752 9.58113C53.6998 11.0111 53.7809 12.5115 53.7186 13.9708C52.6247 13.9018 51.4524 13.9341 50.3514 13.9434C50.3286 13.1719 50.4821 10.0335 50.1238 9.55964C49.5911 9.31144 48.7318 9.48617 48.1404 9.55964C48.0643 10.9474 48.0937 12.5423 48.0867 13.9493C46.9182 13.9541 45.963 13.9219 44.7801 13.9874C44.7048 13.0301 44.7305 11.9243 44.7303 10.9542C44.7399 9.95488 44.7745 9.26587 43.4637 9.39753C43.0355 9.4406 42.5906 9.49649 42.1619 9.54792C42.1018 10.6409 42.1187 12.9099 42.2156 13.9698C43.0716 15.2787 44.9068 16.4672 46.2283 17.2218C49.3173 17.0547 52.6889 17.306 55.8826 17.1221C55.9704 18.0169 55.9528 18.8766 55.949 19.7735C52.437 19.7343 48.9073 19.7945 45.3963 19.7706C43.9601 19.7607 41.4981 19.8502 40.1395 19.7032C40.1904 18.8716 39.9524 17.8501 40.3455 17.3302C40.6985 17.1575 40.8355 17.2279 41.2557 17.2481C38.7584 15.2304 38.6241 14.0821 38.6619 11.0411C38.715 6.77934 40.8707 6.77181 44.2811 6.79011C44.9973 6.71722 45.7261 7.0783 46.3475 7.38093ZM63.2879 6.77253C65.1869 6.76597 68.1184 6.41895 69.4871 7.84187C70.7423 9.14693 70.3934 11.6751 70.3807 13.3848C70.365 15.4939 70.3744 17.6831 70.2986 19.7862C69.1941 19.7684 68.0889 19.767 66.9842 19.7823L66.9959 9.75495L66.9344 9.5782C66.5788 9.3749 64.0725 9.40771 63.6893 9.71394C63.5339 10.3207 63.6802 12.845 63.6971 13.5841L63.8016 19.753C62.8206 19.8189 61.3719 19.7707 60.3777 19.7491C60.3272 17.6625 60.2927 15.5755 60.2742 13.4884C60.2615 12.2468 60.2076 10.9965 60.3055 9.75886C60.4614 7.78836 61.5739 7.18238 63.2879 6.77253ZM23.8445 12.7716C23.3203 12.3986 21.3659 12.5498 20.6317 12.5704L20.4598 12.6514C20.2648 13.3051 20.327 16.6509 20.4373 17.3731C21.4448 17.3695 22.7217 17.3978 23.7068 17.3428C24.1237 16.9398 24.1267 13.2285 23.8445 12.7716ZM6.72443 9.54304C5.69537 9.4986 4.66499 9.49343 3.63556 9.52742C3.51598 10.1699 3.54745 16.5392 3.65119 17.3458C4.67163 17.3608 5.69226 17.3615 6.71271 17.3477C6.82633 15.1088 6.71939 12.8002 6.75079 10.5548C6.75528 10.236 6.74651 9.86151 6.72443 9.54304ZM155.721 9.87019C154.804 9.85526 153.932 9.84259 153.014 9.86726C151.837 10.6543 152.13 12.4736 152.164 13.7432C153.39 13.6328 154.651 13.6592 155.884 13.6622C156.134 13.684 156.385 13.7423 156.577 13.5938C156.626 13.1243 156.601 11.2887 156.547 10.8067C156.232 10.3627 156.14 10.2362 155.721 9.87019ZM124.652 9.86824C123.252 10.8433 123.505 12.1907 123.667 13.7364C124.762 13.679 125.857 13.6531 126.954 13.6593C127.233 13.6725 127.591 13.6994 127.863 13.6944C127.917 12.7407 127.893 11.8689 127.873 10.9161C127.517 10.5026 127.26 10.1606 126.794 9.87312C126.086 9.86164 125.358 9.84071 124.652 9.86824Z" fill="var(--fill-0, white)"/>
</svg>
