<?xml version="1.0" encoding="UTF-8"?>
<svg id="Layer_1" xmlns="http://www.w3.org/2000/svg" version="1.1" viewBox="124 380 832 321">
  <!-- Generator: Adobe Illustrator 29.8.7, SVG Export Plug-In . SVG Version: 2.1.1 Build 1)  -->
  <defs>
    <style>
      .st0, .st1 {
        fill: #fafafb;
      }

      .st1 {
        fill-rule: evenodd;
      }
    </style>
  </defs>
  <path class="st1" d="M463,497v27c0,8.2,5.6,14.9,12.4,14.9h44.6v22.8h-72.4c-9.5,0-17.2-10.6-17.2-23.5v-55.2c0-13,7.7-23.5,17.2-23.5h72.4v22.8h-44.6c-6.8,0-12.4,6.7-12.4,14.9"/>
  <path class="st1" d="M679,488.3v6.8c0,3.4,2.7,6.2,6,6.2h46.2c9.9,0,17.9,10.6,17.9,23.6v13.2c0,13-8,23.6-17.9,23.6h-87.6v-22.8h70v-19.2h-52.1c-9.9,0-17.9-10.6-17.9-23.6v-13.2c0-13,8-23.6,17.9-23.6h87.6v22.8h-64.1c-3.3,0-6,2.8-6,6.2"/>
  <path class="st1" d="M614.8,458.8h-65.9c-9.7,0-17.6,10.8-17.6,24v78.7h31.5v-32.2h38.1v32.2h31.5v-78.7c0-13.2-7.9-24-17.6-24M600.9,511.7h-38.1v-19.5c0-8.1,5.5-14.6,12.2-14.6h13.7c6.7,0,12.2,6.6,12.2,14.6v19.5Z"/>
  <path class="st1" d="M843.8,458.8h-65.9c-9.7,0-17.6,10.8-17.6,24v78.7h31.5v-32.2h38.1v32.2h31.5v-78.7c0-13.2-7.9-24-17.6-24M829.9,511.7h-38.1v-19.5c0-8.1,5.5-14.6,12.2-14.6h13.7c6.7,0,12.2,6.6,12.2,14.6v19.5Z"/>
  <path class="st1" d="M463,629.7v27c0,8.2,5.6,14.9,12.4,14.9h44.6v22.8h-72.4c-9.5,0-17.2-10.6-17.2-23.5v-55.2c0-13,7.7-23.5,17.2-23.5h72.4v22.8h-44.6c-6.8,0-12.4,6.7-12.4,14.9"/>
  <path class="st1" d="M614.8,591.6h-65.9c-9.7,0-17.6,10.8-17.6,24v78.7h31.5v-32.2h38.1v32.2h31.5v-78.7c0-13.2-7.9-24-17.6-24M600.9,644.4h-38.1v-19.5c0-8.1,5.5-14.6,12.2-14.6h13.7c6.7,0,12.2,6.6,12.2,14.6v19.5Z"/>
  <path class="st1" d="M932.2,591.6h-65.9c-9.7,0-17.6,10.8-17.6,24v78.7h31.5v-32.2h38.1v32.2h31.5v-78.7c0-13.2-7.9-24-17.6-24M918.4,644.4h-38.1v-19.5c0-8.1,5.5-14.6,12.2-14.6h13.7c6.7,0,12.2,6.6,12.2,14.6v19.5Z"/>
  <path class="st1" d="M729.9,671.6v22.8h-74.8c-6.2,0-11.3-7.1-11.3-15.9v-86.9h30v80h56.1Z"/>
  <path class="st1" d="M823.6,591.8h-83.7v102.5h83.7c7.7,0,13.9-8.6,13.9-19.2v-64.1c0-10.6-6.2-19.2-13.9-19.2M806.1,659.4c0,8.4-5.7,15.1-12.6,15.1h-22.2v-60.2h22.2c7,0,12.6,6.8,12.6,15.1v29.9Z"/>
  <path class="st0" d="M370.4,479.7v214.6h-239.9v-16.1h118.8c.3-4.6.9-9.1,1.7-13.5l-104.5-28-16.1-4.3v-16.6l16.1,4.3,108.6,29.1c1.5-4.3,3.2-8.5,5.2-12.6l-113.8-65.7-16.1-9.3v-18.5l16.1,9.3,121.8,70.3c2.6-3.8,5.3-7.4,8.3-10.8l-145.3-145.3c.9-6.3,2.4-12.4,4.5-18.2l152.2,152.2c3.4-3,7-5.8,10.8-8.3l-105.9-183.4-8.1-14c4.9-2.3,10-4.1,15.3-5.5l8.4,14.5,104.1,180.3c4-2,8.3-3.7,12.6-5.2l-47.3-176.6-4.3-16.1h3.4c4.6,0,9.1.3,13.5,1l4.6,17.2,45.6,170.3c4.4-.8,8.9-1.4,13.5-1.8v-145.8c10.1,14.9,16.1,32.9,16.1,52.3"/>
  <path class="st0" d="M354.4,427.4c-14.4-21.2-37.3-36.2-63.7-40-4.4-.7-8.9-1-13.5-1h-53.3c-8.1,0-16.1,1.1-23.6,3-5.3,1.4-10.4,3.3-15.3,5.5-22.7,10.5-40.5,29.8-49,53.5-2.1,5.8-3.6,11.9-4.5,18.2-.6,4.3-.9,8.6-.9,13v214.6h239.9v-214.6c0-19.4-5.9-37.4-16.1-52.3M354.4,678.3h-207.7v-198.5c0-6.3.8-12.5,2.2-18.4,5.8-23.5,22.3-42.9,44.2-52.4,5-2.2,10.2-3.9,15.7-5,4.9-1,10-1.5,15.2-1.5h54.2c5.9,0,11.7.8,17.2,2.2,33.9,8.2,59.1,38.7,59.1,75.1v198.5Z"/>
  <path class="st0" d="M354.4,427.4c-14.4-21.2-37.3-36.2-63.7-40-4.4-.7-8.9-1-13.5-1h-53.3c-8.1,0-16.1,1.1-23.6,3-5.3,1.4-10.4,3.3-15.3,5.5-22.7,10.5-40.5,29.8-49,53.5-2.1,5.8-3.6,11.9-4.5,18.2-.6,4.3-.9,8.6-.9,13v214.6h239.9v-214.6c0-19.4-5.9-37.4-16.1-52.3M354.4,678.3h-207.7v-198.5c0-6.3.8-12.5,2.2-18.4,5.8-23.5,22.3-42.9,44.2-52.4,5-2.2,10.2-3.9,15.7-5,4.9-1,10-1.5,15.2-1.5h54.2c5.9,0,11.7.8,17.2,2.2,33.9,8.2,59.1,38.7,59.1,75.1v198.5Z"/>
</svg>