<svg id="Raggruppa_17862" data-name="Raggruppa 17862" xmlns="http://www.w3.org/2000/svg" xmlns:xlink="http://www.w3.org/1999/xlink" width="292" height="79.939" viewBox="0 0 292 79.939"><defs><clipPath id="clip-path"><rect id="Rettangolo_3157" data-name="Rettangolo 3157" width="292" height="79.939" fill="none"/></clipPath></defs><g id="Raggruppa_17862-2" data-name="Raggruppa 17862" transform="translate(0 0)" clip-path="url(#clip-path)"><path id="Tracciato_26101" data-name="Tracciato 26101" d="M52.1,21.284A20.264,20.264,0,0,0,45.873,6.342,20.477,20.477,0,0,0,30.868.138a20.458,20.458,0,0,0-15.033,6.2A20.266,20.266,0,0,0,9.6,21.284a20.318,20.318,0,0,0,6.231,14.967,20.555,20.555,0,0,0,15.033,6.2,20.574,20.574,0,0,0,15.005-6.2A20.316,20.316,0,0,0,52.1,21.284" transform="translate(12.165 0.176)" fill="#161615"/><path id="Tracciato_26102" data-name="Tracciato 26102" d="M52.027,21.255a20.211,20.211,0,0,0-6.213-14.9A20.427,20.427,0,0,0,30.84.161a20.4,20.4,0,0,0-14.994,6.19,20.2,20.2,0,0,0-6.218,14.9,20.255,20.255,0,0,0,6.218,14.931A20.5,20.5,0,0,0,30.84,42.374a20.531,20.531,0,0,0,14.974-6.188A20.268,20.268,0,0,0,52.027,21.255Z" transform="translate(12.196 0.205)" fill="none" stroke="#161615" stroke-width="0.277"/><path id="Tracciato_26103" data-name="Tracciato 26103" d="M37.075,18.446A12.5,12.5,0,0,1,35.182,24.2c-.376.5-.605.347-.68-.431a7.449,7.449,0,0,0-.782-2.559,7.735,7.735,0,0,0-3.178-3.062L19.7,11.868a14.224,14.224,0,0,1-3.1-2.085,3.5,3.5,0,0,1,.227-4.821A5.972,5.972,0,0,1,20.5,3.228a14.264,14.264,0,0,1,5.17.127A16.092,16.092,0,0,1,31.6,5.966a12.641,12.641,0,0,1,4.366,5.372,13.228,13.228,0,0,1,1.111,7.108" transform="translate(19.937 3.866)" fill="#fff"/><path id="Tracciato_26104" data-name="Tracciato 26104" d="M37.055,18.429a12.449,12.449,0,0,1-1.89,5.742c-.376.5-.6.349-.68-.426a7.433,7.433,0,0,0-.777-2.557,7.746,7.746,0,0,0-3.173-3.06L19.706,11.86a14.1,14.1,0,0,1-3.1-2.081,3.5,3.5,0,0,1,.224-4.814,5.974,5.974,0,0,1,3.674-1.729,14.276,14.276,0,0,1,5.164.127A16.057,16.057,0,0,1,31.59,5.971a12.629,12.629,0,0,1,4.357,5.363A13.178,13.178,0,0,1,37.055,18.429Z" transform="translate(19.957 3.876)" fill="none" stroke="#fff" stroke-miterlimit="3.864" stroke-width="0.095"/><path id="Tracciato_26105" data-name="Tracciato 26105" d="M15.222,7.175a6.967,6.967,0,0,0,.755,2.561,7.654,7.654,0,0,0,3.2,3.065l10.846,6.276A14.161,14.161,0,0,1,33.1,21.161a3.512,3.512,0,0,1-.2,4.848,6.228,6.228,0,0,1-3.711,1.707,14.282,14.282,0,0,1-5.17-.122A16,16,0,0,1,18.121,25a12.765,12.765,0,0,1-4.363-5.4,13.211,13.211,0,0,1-1.111-7.081,12.52,12.52,0,0,1,1.865-5.776c.379-.5.607-.351.709.426" transform="translate(15.907 8.18)" fill="#d9000d"/><path id="Tracciato_26106" data-name="Tracciato 26106" d="M15.22,7.182a6.846,6.846,0,0,0,.755,2.557,7.667,7.667,0,0,0,3.2,3.06L30,19.064a14.189,14.189,0,0,1,3.076,2.081,3.509,3.509,0,0,1-.2,4.839,6.219,6.219,0,0,1-3.706,1.7,14.17,14.17,0,0,1-5.159-.125,15.884,15.884,0,0,1-5.893-2.582,12.742,12.742,0,0,1-4.359-5.39,13.186,13.186,0,0,1-1.106-7.07A12.5,12.5,0,0,1,14.51,6.755C14.889,6.254,15.118,6.4,15.22,7.182Z" transform="translate(15.909 8.19)" fill="none" stroke="#d9000d" stroke-miterlimit="3.864" stroke-width="0.095"/><path id="Tracciato_26107" data-name="Tracciato 26107" d="M42.611,37.538A20.261,20.261,0,0,0,36.38,22.6a20.477,20.477,0,0,0-15.006-6.2,20.453,20.453,0,0,0-15.03,6.2A20.261,20.261,0,0,0,.113,37.538,20.313,20.313,0,0,0,6.344,52.5a20.55,20.55,0,0,0,15.03,6.2A20.575,20.575,0,0,0,36.38,52.5a20.313,20.313,0,0,0,6.231-14.967" transform="translate(0.143 20.765)" fill="#161615"/><path id="Tracciato_26108" data-name="Tracciato 26108" d="M42.535,37.509a20.213,20.213,0,0,0-6.215-14.9,20.417,20.417,0,0,0-14.969-6.19,20.4,20.4,0,0,0-15,6.19,20.2,20.2,0,0,0-6.215,14.9A20.265,20.265,0,0,0,6.354,52.44a20.5,20.5,0,0,0,15,6.188A20.521,20.521,0,0,0,36.32,52.44,20.273,20.273,0,0,0,42.535,37.509Z" transform="translate(0.176 20.794)" fill="none" stroke="#161615" stroke-width="0.277"/><path id="Tracciato_26109" data-name="Tracciato 26109" d="M27.594,34.7a12.5,12.5,0,0,1-1.89,5.748c-.379.505-.607.354-.682-.426a7.433,7.433,0,0,0-.782-2.559A7.774,7.774,0,0,0,21.061,34.4L10.217,28.122a14.313,14.313,0,0,1-3.105-2.085,3.5,3.5,0,0,1,.231-4.821,5.96,5.96,0,0,1,3.679-1.734,14.262,14.262,0,0,1,5.17.127A16.032,16.032,0,0,1,22.12,22.22a12.637,12.637,0,0,1,4.363,5.372A13.185,13.185,0,0,1,27.594,34.7" transform="translate(7.93 24.455)" fill="#fff"/><path id="Tracciato_26110" data-name="Tracciato 26110" d="M27.564,34.683a12.458,12.458,0,0,1-1.888,5.742c-.379.5-.605.349-.68-.428a7.471,7.471,0,0,0-.78-2.555,7.733,7.733,0,0,0-3.173-3.06L10.215,28.114a14.225,14.225,0,0,1-3.1-2.081,3.5,3.5,0,0,1,.229-4.814,5.95,5.95,0,0,1,3.674-1.729,14.277,14.277,0,0,1,5.164.127A16.105,16.105,0,0,1,22.1,22.223a12.645,12.645,0,0,1,4.354,5.365A13.178,13.178,0,0,1,27.564,34.683Z" transform="translate(7.936 24.465)" fill="none" stroke="#fff" stroke-miterlimit="3.864" stroke-width="0.095"/><path id="Tracciato_26111" data-name="Tracciato 26111" d="M5.731,23.429a6.926,6.926,0,0,0,.757,2.561,7.661,7.661,0,0,0,3.205,3.065l10.844,6.279a14,14,0,0,1,3.078,2.083,3.509,3.509,0,0,1-.2,4.846A6.249,6.249,0,0,1,19.7,43.972a14.283,14.283,0,0,1-5.17-.125,15.957,15.957,0,0,1-5.9-2.589,12.757,12.757,0,0,1-4.368-5.4,13.145,13.145,0,0,1-1.108-7.081A12.513,12.513,0,0,1,5.024,23c.379-.5.605-.349.707.428" transform="translate(3.884 28.769)" fill="#d9000d"/><path id="Tracciato_26112" data-name="Tracciato 26112" d="M5.739,23.437a6.93,6.93,0,0,0,.755,2.557,7.673,7.673,0,0,0,3.2,3.06l10.828,6.267A14.16,14.16,0,0,1,23.592,37.4a3.5,3.5,0,0,1-.2,4.837,6.24,6.24,0,0,1-3.706,1.707,14.167,14.167,0,0,1-5.159-.127,15.921,15.921,0,0,1-5.893-2.582,12.683,12.683,0,0,1-4.354-5.39,13.108,13.108,0,0,1-1.108-7.07A12.447,12.447,0,0,1,5.032,23.01C5.411,22.509,5.635,22.659,5.739,23.437Z" transform="translate(3.901 28.78)" fill="none" stroke="#d9000d" stroke-miterlimit="3.864" stroke-width="0.095"/><path id="Tracciato_26113" data-name="Tracciato 26113" d="M61.442,37.628a20.258,20.258,0,0,0-6.231-14.942,20.477,20.477,0,0,0-15.006-6.2,20.455,20.455,0,0,0-15.033,6.2,20.264,20.264,0,0,0-6.229,14.942,20.319,20.319,0,0,0,6.229,14.967,20.551,20.551,0,0,0,15.033,6.2,20.575,20.575,0,0,0,15.006-6.2,20.313,20.313,0,0,0,6.231-14.967" transform="translate(23.996 20.879)" fill="#161615"/><path id="Tracciato_26114" data-name="Tracciato 26114" d="M61.364,37.6a20.209,20.209,0,0,0-6.215-14.906A20.429,20.429,0,0,0,40.177,16.5a20.409,20.409,0,0,0-15,6.188A20.216,20.216,0,0,0,18.968,37.6,20.271,20.271,0,0,0,25.181,52.53a20.505,20.505,0,0,0,15,6.188A20.526,20.526,0,0,0,55.149,52.53,20.265,20.265,0,0,0,61.364,37.6Z" transform="translate(24.027 20.908)" fill="none" stroke="#161615" stroke-width="0.277"/><path id="Tracciato_26115" data-name="Tracciato 26115" d="M46.424,34.792a12.486,12.486,0,0,1-1.89,5.748c-.379.505-.607.351-.68-.426a7.353,7.353,0,0,0-.784-2.559,7.774,7.774,0,0,0-3.178-3.067L29.046,28.214a14.3,14.3,0,0,1-3.1-2.085,3.5,3.5,0,0,1,.229-4.821,5.973,5.973,0,0,1,3.681-1.734,14.213,14.213,0,0,1,5.17.127,16.113,16.113,0,0,1,5.927,2.609,12.674,12.674,0,0,1,4.363,5.374,13.185,13.185,0,0,1,1.111,7.108" transform="translate(31.781 24.569)" fill="#fff"/><path id="Tracciato_26116" data-name="Tracciato 26116" d="M46.4,34.773a12.492,12.492,0,0,1-1.888,5.739c-.379.5-.605.351-.682-.424a7.277,7.277,0,0,0-.782-2.557,7.7,7.7,0,0,0-3.171-3.06L29.047,28.2a14.17,14.17,0,0,1-3.1-2.081,3.5,3.5,0,0,1,.227-4.814,5.963,5.963,0,0,1,3.677-1.729,14.23,14.23,0,0,1,5.164.127,16.17,16.17,0,0,1,5.918,2.6,12.665,12.665,0,0,1,4.354,5.368A13.2,13.2,0,0,1,46.4,34.773Z" transform="translate(31.789 24.579)" fill="none" stroke="#fff" stroke-miterlimit="3.864" stroke-width="0.095"/><path id="Tracciato_26117" data-name="Tracciato 26117" d="M24.561,23.519a6.967,6.967,0,0,0,.755,2.561,7.694,7.694,0,0,0,3.2,3.065l10.846,6.276A14.051,14.051,0,0,1,42.443,37.5a3.512,3.512,0,0,1-.2,4.848,6.228,6.228,0,0,1-3.708,1.707,14.293,14.293,0,0,1-5.173-.122,15.989,15.989,0,0,1-5.9-2.589,12.736,12.736,0,0,1-4.366-5.4,13.188,13.188,0,0,1-1.108-7.081,12.539,12.539,0,0,1,1.865-5.778c.381-.5.605-.349.707.428" transform="translate(27.738 28.883)" fill="#d9000d"/><path id="Tracciato_26118" data-name="Tracciato 26118" d="M24.559,23.527a6.888,6.888,0,0,0,.755,2.557,7.667,7.667,0,0,0,3.2,3.06l10.83,6.265a14.092,14.092,0,0,1,3.074,2.081,3.507,3.507,0,0,1-.2,4.839,6.205,6.205,0,0,1-3.7,1.7,14.192,14.192,0,0,1-5.164-.125,15.859,15.859,0,0,1-5.891-2.582,12.7,12.7,0,0,1-4.357-5.39,13.126,13.126,0,0,1-1.108-7.07A12.5,12.5,0,0,1,23.852,23.1C24.228,22.6,24.457,22.749,24.559,23.527Z" transform="translate(27.741 28.894)" fill="none" stroke="#d9000d" stroke-miterlimit="3.864" stroke-width="0.095"/><path id="Tracciato_26119" data-name="Tracciato 26119" d="M172.981,8.235a6.1,6.1,0,0,0,.369-2.174,5.792,5.792,0,0,0-1.718-4.119A5.7,5.7,0,0,0,167.5.231a5.474,5.474,0,0,0-3.3,1.018A5.6,5.6,0,0,0,162.06,3.84L140.125,64.408A6.637,6.637,0,0,1,138.078,67a4.98,4.98,0,0,1-3.065,1.389h-5.855c-2.879,0-3.856-1.251-2.976-3.7L147,7.265a4.831,4.831,0,0,0,.279-1.666,5.264,5.264,0,0,0-1.671-3.933A5.249,5.249,0,0,0,141.66,0,5.474,5.474,0,0,0,136.5,3.516L114.614,63.758a7.18,7.18,0,0,1-1.949,2.872,5.159,5.159,0,0,1-3.534,1.759H71.213A1.906,1.906,0,0,1,69.4,67.232a2.946,2.946,0,0,1-.093-2.591l1.487-4.073a1.27,1.27,0,0,1,.7-.879c.1,0,.374-.045.836-.045H97.7a5.523,5.523,0,0,0,3.441-1.528,7.17,7.17,0,0,0,2.185-2.822l5.807-15.964q1.537-4.512-.836-7.5c-1.58-1.945-3.949-2.915-7.156-2.915H78.09l1.394,11.057H94.12a1.663,1.663,0,0,1,1.442.741,1.3,1.3,0,0,1,.188,1.2l-2.092,5.832a1.6,1.6,0,0,1-1.442,1.156H77.02c-.975,0-1.487-.231-1.625-.7a2.394,2.394,0,0,1,.277-1.154l2.047-5.787a1.736,1.736,0,0,1,1.766-1.3L78.09,28.918a10.877,10.877,0,0,0-6.181,1.99,10.212,10.212,0,0,0-4.137,5.043L63.59,47.426a2.061,2.061,0,0,1-2.045,1.528H44.353a5.379,5.379,0,0,0-5.345,5.322,5.059,5.059,0,0,0,1.58,3.794,4.941,4.941,0,0,0,3.765,1.573H56.806a1.807,1.807,0,0,1,1.532.6,1.269,1.269,0,0,1,.186,1.249l-3.389,9.255a5.561,5.561,0,0,0-.141,3.053,7.139,7.139,0,0,0,1.439,2.915,7.777,7.777,0,0,0,2.512,2.267,6.971,6.971,0,0,0,3.25.879h46.7a10.01,10.01,0,0,0,2.833-.372,11.377,11.377,0,0,0,2.976-1.523c1.673.832,2.509,1.247,2.6,1.294a9.305,9.305,0,0,0,3.3.6h14.264a10.858,10.858,0,0,0,2.881-.372,10.188,10.188,0,0,0,3.117-1.523c1.578.784,2.462,1.2,2.7,1.294a9.771,9.771,0,0,0,3.346.6h32.479c1.4,0,2.883-.834,4.368-2.4a11.934,11.934,0,0,0,2.511-3.656l10.919-30.217a6,6,0,0,1,2.557-2.958,6.144,6.144,0,0,1,3.205-1.065h7.111a2.177,2.177,0,0,1,1.954,1.482,3.122,3.122,0,0,1,.279,2.36L203.325,68.11c-1.535,4.209-1.256,7.4.884,9.486a8.48,8.48,0,0,0,6.224,2.267h26.72a5.565,5.565,0,0,0,3.858-1.573,5.39,5.39,0,0,0-3.858-9.207h-18.26a2.622,2.622,0,0,1-2.371-1.342,3.131,3.131,0,0,1-.233-2.638l9.248-25.541a7.345,7.345,0,0,0-.927-7.541,8.857,8.857,0,0,0-7.156-3.146H202.4a12.3,12.3,0,0,0-3.441.832c-1.532.508-2.276.879-2.276,1.063,0-.231-.836-.6-2.462-1.111a14.042,14.042,0,0,0-3.717-.784H169.261a9.287,9.287,0,0,0-2.323.369,3.08,3.08,0,0,0-2.135,1.573l1.9,8.7H182.6a2.506,2.506,0,0,1,2.183,1.292,3.328,3.328,0,0,1,.279,2.827l-7.48,20.591a7.536,7.536,0,0,1-2.047,2.636,4.7,4.7,0,0,1-2.786,1.48h-18.31a1.881,1.881,0,0,1-1.764-1.294,3.176,3.176,0,0,1-.1-2.684l7.48-20.684a5.687,5.687,0,0,1,3.627-3.425,7.734,7.734,0,0,1,3.019-.739l-1.9-8.7Z" transform="translate(49.411 0.001)" fill="#d9000d"/><path id="Tracciato_26120" data-name="Tracciato 26120" d="M130.773,1.664a5.355,5.355,0,0,0-9.146,3.776,5.2,5.2,0,0,0,1.564,3.779,5.4,5.4,0,0,0,7.582,0,5.2,5.2,0,0,0,1.562-3.779,5.261,5.261,0,0,0-1.562-3.776" transform="translate(154.064 0.139)" fill="#d9000d"/><path id="Tracciato_26121" data-name="Tracciato 26121" d="M130.763,1.664a5.344,5.344,0,0,0-9.128,3.767,5.19,5.19,0,0,0,1.559,3.77,5.388,5.388,0,0,0,7.569,0,5.172,5.172,0,0,0,1.559-3.77A5.238,5.238,0,0,0,130.763,1.664Z" transform="translate(154.074 0.145)" fill="none" stroke="#d9000d" stroke-miterlimit="3.864" stroke-width="0.06"/></g></svg>